<svg width="570" height="563" viewBox="0 0 570 563" fill="none" xmlns="http://www.w3.org/2000/svg">
<path d="M561.58 332.58C561.58 332.563 561.58 332.545 561.575 332.528C561.575 332.516 561.575 332.504 561.572 332.492L561.349 331.703L539.39 160.97L539.39 160.005C539.39 160.005 539.383 159.986 539.383 159.976C539.38 159.954 539.378 159.934 539.37 159.912C539.361 159.89 539.348 159.873 539.334 159.856C539.329 159.849 539.326 159.839 539.319 159.834L475.093 94.6904L418.959 35.6717C418.952 35.6644 418.942 35.6595 418.932 35.6522C418.917 35.6424 418.905 35.6301 418.89 35.6228C418.876 35.6154 418.859 35.6105 418.844 35.6081C418.832 35.6056 418.822 35.5983 418.812 35.5983L415.978 35.2652L251.697 8.75715L249.839 8.33347C249.839 8.33347 249.829 8.33347 249.822 8.33347C249.805 8.33102 249.788 8.33347 249.77 8.33347C249.753 8.33347 249.739 8.33347 249.724 8.34082C249.719 8.34082 249.712 8.34082 249.707 8.34082L152.98 40.9983L152.978 40.9983C152.963 41.0032 152.954 41.013 152.941 41.0204C152.927 41.0277 152.909 41.0351 152.895 41.0449L152.892 41.0449L152.892 41.0473L101.08 85.4944C101.08 85.4944 101.07 85.5066 101.065 85.514C101.06 85.5189 101.053 85.5238 101.046 85.5311L39.1511 164.783C39.1511 164.783 39.1511 164.788 39.1462 164.791C39.1364 164.803 39.1315 164.82 39.1241 164.835C39.1168 164.85 39.1094 164.864 39.107 164.879C39.107 164.881 39.1045 164.884 39.1045 164.889L26.6025 232.599L9.56552 323.575C9.56552 323.587 9.56552 323.597 9.56552 323.609C9.56552 323.626 9.56552 323.643 9.56552 323.66C9.56797 323.678 9.57533 323.692 9.58023 323.709C9.58513 323.719 9.58513 323.731 9.59004 323.741L49.7852 395.24L82.9963 468.453C82.9963 468.453 83.0086 468.473 83.0159 468.482C83.0208 468.49 83.0233 468.497 83.0306 468.505C83.0478 468.527 83.0699 468.546 83.0944 468.561L161.901 515.212L224.404 553.412C224.404 553.412 224.418 553.419 224.428 553.421C224.435 553.424 224.443 553.429 224.45 553.431C224.477 553.441 224.504 553.448 224.531 553.448C224.534 553.448 224.538 553.448 224.541 553.448L323.694 549.163C323.694 549.163 323.701 549.16 323.706 549.16C323.721 549.16 323.738 549.16 323.753 549.153L384.912 531.03C384.912 531.03 384.917 531.028 384.922 531.025C384.934 531.02 384.949 531.018 384.961 531.011L477.233 481.056L477.235 481.056C477.235 481.056 477.235 481.056 477.238 481.053C477.262 481.041 477.282 481.021 477.302 481.002C477.307 480.997 477.309 480.992 477.314 480.987C477.314 480.985 477.319 480.982 477.321 480.977L517.411 421.959C517.411 421.959 517.413 421.951 517.416 421.946C517.421 421.939 517.426 421.934 517.428 421.929L561.55 332.668C561.55 332.668 561.555 332.646 561.56 332.634C561.565 332.616 561.572 332.599 561.575 332.582L561.58 332.58ZM517.002 421.697L479.493 476.914L558.283 338.185L517.002 421.699L517.002 421.697ZM384.753 530.567L326.332 547.877L472.901 482.843L384.753 530.565L384.753 530.567ZM224.6 552.954L163.056 515.339L322.226 548.734L224.6 552.954ZM83.4131 468.176L50.6873 396.033L161.058 514.139L83.4131 468.176ZM39.5727 165.036L100.274 87.3115L27.3134 231.443L39.5727 165.038L39.5727 165.036ZM153.174 41.4465L247.598 9.56777L102.597 84.8356L153.177 41.4465L153.174 41.4465ZM316.747 24.0806C316.747 24.0806 316.759 24.0806 316.766 24.0806C316.769 24.0806 316.771 24.0806 316.774 24.0806L417.787 35.9681L338.164 56.5569L251.016 9.10246L316.749 24.0806L316.747 24.0806ZM474.738 95.0333L538.422 159.628L452.209 129.787L419.182 36.6269L474.733 95.0308L474.738 95.0333ZM418.66 36.0758L418.77 36.1909L451.881 129.589L338.449 56.743L418.459 36.0538L418.662 36.0783L418.66 36.0758ZM538.895 160.108L538.895 160.579L521.189 245.88L452.393 130.11L538.811 160.025L538.895 160.111L538.895 160.108ZM561.072 332.536L561.055 332.57L483.94 373.806L521.272 246.561L560.893 331.904L561.072 332.538L561.072 332.536ZM476.951 480.652L476.875 480.693L395.026 473.27L483.597 374.394L477.017 480.559L476.954 480.652L476.951 480.652ZM323.65 548.673L265.471 473.493L394.487 473.493L323.785 548.634L323.65 548.673ZM162.154 514.791L162.112 514.766L145.766 423.543L264.905 473.368L162.183 514.808L162.158 514.793L162.154 514.791ZM50.2264 395.025C50.2264 395.025 50.2215 395.02 50.219 395.015C50.219 395.012 50.219 395.007 50.2166 395.005L50.2166 395L103.046 301.563L145.408 423.154L50.2485 395.069L50.2288 395.022L50.2264 395.025ZM27.0806 232.687L27.0953 232.606L109.312 172.282L102.963 301.005L27.083 232.694L27.083 232.69L27.0806 232.687ZM101.416 85.8495L101.462 85.8103L212.294 89.5867L109.55 171.797L101.382 85.8936L101.416 85.8495ZM311.697 269.829L359.761 378.004L224.06 351.342L311.697 269.829ZM223.891 351.163L205.937 215.593L311.53 269.65L223.894 351.163L223.891 351.163ZM311.918 269.721L426.404 254.934L359.977 377.891L311.915 269.723L311.918 269.721ZM311.886 269.479L329.901 153.535L426.372 254.691L311.886 269.479ZM311.645 269.434L206.058 215.38L329.663 153.486L311.648 269.434L311.645 269.434ZM223.653 351.219L103.313 301.235L205.695 215.615L223.653 351.219ZM359.722 378.244L265.283 473.143L223.989 351.577L359.724 378.246L359.722 378.244ZM426.622 255.051L483.555 373.931L360.18 378.038L426.622 255.051ZM330.063 153.349L451.967 130.037L426.556 254.527L330.063 153.349ZM205.92 215.174L212.742 89.6748L329.555 153.266L205.92 215.174ZM205.673 215.194L109.684 172.003L212.492 89.741L205.673 215.194ZM205.557 215.409L103.215 300.995L109.567 172.219L205.557 215.409ZM223.577 351.452L145.661 423.122L103.284 301.485L223.577 351.449L223.577 351.452ZM223.747 351.631L265.025 473.15L145.832 423.301L223.747 351.631ZM359.92 378.391L394.602 473.246L265.523 473.246L359.92 378.391ZM360.143 378.286L483.462 374.181L394.823 473.136L360.143 378.286ZM426.816 254.887L521.083 246.348L483.717 373.706L426.813 254.887L426.816 254.887ZM426.781 254.645L452.18 130.218L521.046 246.105L426.781 254.645ZM329.955 153.119L338.257 56.9022L451.798 129.819L329.955 153.119ZM329.712 153.072L212.961 89.5132L338.017 56.8508L329.714 153.072L329.712 153.072ZM212.848 89.2879L249.8 8.82572L250.136 8.90164L337.819 56.65L212.845 89.2903L212.848 89.2879ZM249.484 8.93103L212.551 89.3491L101.737 85.5727L101.784 85.5336L249.118 9.05348L249.481 8.93103L249.484 8.93103ZM101.161 86.1752L109.319 171.979L27.1811 232.244L101.056 86.3099L101.161 86.1727L101.161 86.1752ZM27.0291 232.976L102.921 301.294L50.0769 394.75L27.0193 233.023L27.0291 232.976ZM145.499 423.438L161.832 514.6L161.808 514.585L50.4029 395.372L145.499 423.438ZM265.187 473.518L323.356 548.687L323.216 548.692L162.45 514.962L265.187 473.518ZM324.255 548.494L394.823 473.496L476.488 480.901L475.645 481.359L324.513 548.416L324.255 548.492L324.255 548.494ZM477.289 480.159L483.862 374.125L560.874 332.945L560.175 334.355L477.775 479.442L477.289 480.157L477.289 480.159ZM521.377 246.196L538.905 161.766L539.145 254.782C539.145 254.782 539.15 254.804 539.152 254.814C539.152 254.826 539.152 254.836 539.155 254.848L560.479 330.417L521.377 246.196ZM26.8796 233.774L49.7459 394.162L10.0631 323.577L26.8796 233.774ZM560.896 330.094L539.633 254.748L539.395 162.932L560.896 330.094ZM410.298 34.5966L316.847 23.6006L255.428 9.60695L410.298 34.5966Z" fill="#878887"/>
<g opacity="0.2">
<path d="M459.253 136.246L450.953 141.096L442.653 136.246L442.653 126.563L450.953 121.73L459.253 126.563L459.253 136.246Z" fill="#878887"/>
<path d="M347.207 60.1647L338.907 65.0146L330.607 60.1647L330.607 50.4817L338.907 45.6485L347.207 50.4817L347.207 60.1647Z" fill="#878887"/>
<path d="M260.059 14.5162L251.759 19.3661L243.459 14.5162L243.459 4.83313L251.759 -2.35441e-08L260.059 4.83313L260.059 14.5162Z" fill="#878887"/>
<path d="M221.327 96.1302L213.027 100.98L204.728 96.1302L204.728 86.4471L213.027 81.614L221.327 86.4471L221.327 96.1302Z" fill="#878887"/>
<path d="M109.985 91.5162L101.685 96.3661L93.3857 91.5162L93.3857 81.8331L101.685 77L109.985 81.8331L109.985 91.5162Z" fill="#878887"/>
<path d="M481.985 99.5162L473.685 104.366L465.386 99.5162L465.386 89.8331L473.685 85L481.985 89.8331L481.985 99.5162Z" fill="#878887"/>
<path d="M338.907 158.378L330.607 163.228L322.307 158.378L322.307 148.695L330.607 143.862L338.907 148.695L338.907 158.378Z" fill="#878887"/>
<path d="M569.916 336.823L561.617 341.673L553.317 336.823L553.317 327.14L561.617 322.307L569.916 327.14L569.916 336.823Z" fill="#878887"/>
<path d="M493.836 379.705L485.536 384.555L477.236 379.705L477.236 370.022L485.536 365.189L493.836 370.022L493.836 379.705Z" fill="#878887"/>
<path d="M319.541 274.575L311.241 279.425L302.941 274.575L302.941 264.892L311.241 260.059L319.541 264.892L319.541 274.575Z" fill="#878887"/>
<path d="M273.892 477.919L265.592 482.769L257.292 477.919L257.292 468.236L265.592 463.403L273.892 468.236L273.892 477.919Z" fill="#878887"/>
<path d="M547.784 166.678L539.484 171.528L531.184 166.678L531.184 156.995L539.484 152.162L547.784 156.995L547.784 166.678Z" fill="#878887"/>
<path d="M16.5995 327.14L8.29976 331.99L4.11784e-08 327.14L1.37103e-08 317.457L8.29976 312.624L16.5995 317.457L16.5995 327.14Z" fill="#878887"/>
<path d="M89.9146 322.99L81.6148 327.84L73.3151 322.99L73.3151 313.307L81.6148 308.474L89.9146 313.307L89.9146 322.99Z" fill="#878887"/>
<path d="M34.5825 238.61L26.2828 243.459L17.983 238.61L17.983 228.927L26.2828 224.093L34.5825 228.927L34.5825 238.61Z" fill="#878887"/>
</g>
<path d="M539.812 254.464L539.611 254.351L475.26 94.7274C475.26 94.7274 475.253 94.7151 475.25 94.7078C475.245 94.698 475.241 94.6882 475.236 94.6784C475.233 94.6735 475.231 94.671 475.228 94.6661C475.223 94.6563 475.216 94.649 475.209 94.6392C475.204 94.6343 475.201 94.6294 475.196 94.6245C475.196 94.6245 475.194 94.6221 475.192 94.6196C475.189 94.6172 475.184 94.6122 475.182 94.6098C475.174 94.6024 475.165 94.5951 475.157 94.5878C475.15 94.5829 475.145 94.5755 475.138 94.5706C475.135 94.5706 475.133 94.5657 475.128 94.5633C475.12 94.5584 475.111 94.5535 475.101 94.5486C475.091 94.5437 475.084 94.5388 475.074 94.5339C475.074 94.5339 475.071 94.5339 475.069 94.5314L316.956 23.5102C316.956 23.5102 316.946 23.5077 316.941 23.5053C316.934 23.5028 316.929 23.5004 316.921 23.4979C316.921 23.4979 316.919 23.4979 316.916 23.4979C316.909 23.4979 316.902 23.493 316.894 23.493C316.887 23.493 316.88 23.4906 316.872 23.4882C316.867 23.4882 316.86 23.4857 316.855 23.4857C316.855 23.4857 316.85 23.4857 316.848 23.4857C316.84 23.4857 316.833 23.4857 316.826 23.4857C316.816 23.4857 316.809 23.4857 316.801 23.4857C316.796 23.4857 316.791 23.4857 316.784 23.4857C316.782 23.4857 316.777 23.4857 316.774 23.4857C316.774 23.4857 316.769 23.4857 316.767 23.4857L153.015 40.8737C153.015 40.8737 152.998 40.8761 152.991 40.8786C152.984 40.8786 152.974 40.8786 152.966 40.8835C152.961 40.8835 152.959 40.8859 152.957 40.8884C152.944 40.8908 152.932 40.8957 152.92 40.9006C152.917 40.9006 152.912 40.9006 152.91 40.9055C152.91 40.9055 152.905 40.9055 152.903 40.9079C152.898 40.9079 152.893 40.9128 152.888 40.9153C152.878 40.9202 152.866 40.9275 152.856 40.9349C152.846 40.9422 152.836 40.9471 152.827 40.9545C152.817 40.9618 152.809 40.9692 152.8 40.979C152.795 40.9839 152.79 40.9863 152.785 40.9912C152.785 40.9912 152.785 40.9912 152.783 40.9912L39.0733 164.693C39.0659 164.7 39.061 164.71 39.0537 164.718C39.0463 164.725 39.0414 164.732 39.0341 164.742C39.0341 164.744 39.0316 164.747 39.0292 164.749C39.0243 164.759 39.0194 164.769 39.0145 164.779C39.0096 164.789 39.0047 164.796 39.0022 164.806C39.0022 164.808 39.0022 164.811 38.9997 164.813C38.9973 164.823 38.9948 164.833 38.9924 164.842C38.9924 164.845 38.9924 164.85 38.9899 164.852C38.9899 164.857 38.985 164.862 38.985 164.869L38.985 164.874L9.44849 323.558C9.44849 323.558 9.44849 323.56 9.44849 323.563C9.44849 323.568 9.44849 323.57 9.44849 323.575C9.44849 323.587 9.44849 323.597 9.44849 323.609C9.44849 323.619 9.44849 323.629 9.44849 323.639L9.44849 323.643C9.44849 323.643 9.44849 323.644 9.44849 323.646C9.44849 323.656 9.45094 323.666 9.45339 323.675C9.45339 323.685 9.45584 323.697 9.45829 323.707C9.45829 323.71 9.45829 323.714 9.45829 323.717C9.45829 323.724 9.4632 323.732 9.46565 323.739C9.46565 323.739 9.46565 323.741 9.46565 323.744C9.4681 323.754 9.473 323.764 9.47545 323.773C9.47545 323.778 9.4779 323.781 9.48035 323.786C9.48035 323.786 9.48035 323.788 9.48035 323.79L82.894 468.519C82.894 468.519 82.8989 468.524 82.8989 468.527C82.9038 468.537 82.9087 468.544 82.9136 468.554C82.916 468.559 82.9185 468.561 82.9209 468.566C82.9258 468.573 82.9332 468.581 82.9381 468.588C82.943 468.593 82.9455 468.6 82.9504 468.605C82.9504 468.605 82.9553 468.608 82.9553 468.61C82.9577 468.613 82.9626 468.617 82.9651 468.62C82.9724 468.625 82.9798 468.632 82.9847 468.637C82.992 468.644 82.9994 468.649 83.0067 468.654C83.0116 468.657 83.0165 468.662 83.0214 468.664C83.0214 468.664 83.0239 468.664 83.0263 468.666L224.34 553.52C224.34 553.52 224.348 553.522 224.353 553.525C224.367 553.532 224.382 553.539 224.397 553.547C224.402 553.547 224.404 553.547 224.409 553.549C224.414 553.549 224.416 553.552 224.421 553.554C224.429 553.554 224.436 553.559 224.443 553.561C224.47 553.569 224.5 553.574 224.529 553.574L224.534 553.574C224.534 553.574 224.539 553.574 224.541 553.574C224.554 553.574 224.566 553.574 224.581 553.571L384.893 531.163C384.91 531.163 384.925 531.155 384.942 531.15C384.947 531.15 384.952 531.15 384.957 531.146L384.962 531.146C384.991 531.136 385.018 531.121 385.042 531.104C385.047 531.101 385.052 531.097 385.057 531.092C385.06 531.089 385.064 531.087 385.069 531.084L517.436 422.108C517.436 422.108 517.438 422.106 517.441 422.103C517.443 422.101 517.446 422.099 517.448 422.096C517.463 422.081 517.478 422.069 517.49 422.052C517.49 422.05 517.492 422.047 517.495 422.045C517.505 422.032 517.512 422.02 517.519 422.008C517.519 422.005 517.522 422.003 517.524 422.001C517.532 421.988 517.536 421.974 517.541 421.961C517.541 421.959 517.546 421.954 517.546 421.952C517.546 421.949 517.546 421.944 517.546 421.942C517.551 421.93 517.554 421.915 517.556 421.903C517.556 421.895 517.561 421.885 517.561 421.878L539.694 255.15C539.795 255.128 539.883 255.066 539.937 254.971C540.035 254.795 539.971 254.569 539.795 254.471L539.812 254.464ZM246.315 300.755L80.4696 319.25L175.98 134.852L246.315 300.755ZM177.041 134.22L385.954 170.58L247.42 300.226L177.041 134.22ZM246.484 301.967L223.1 472.416L80.673 320.46L246.484 301.97L246.484 301.967ZM247.69 302.2L414.562 385.444L224.294 472.737L247.69 302.2ZM248.261 301.115L386.82 171.45L415.214 384.398L248.263 301.115L248.261 301.115ZM177.105 133.236L316.671 24.4139L386.454 169.674L177.107 133.238L177.105 133.236ZM79.6116 318.768L39.794 165.205L175.247 134.127L79.6116 318.768ZM222.499 473.207L83.5779 467.995L79.9376 321.106L222.499 473.207ZM415.295 386.184L384.574 530.308L224.696 473.628L415.295 386.184ZM416.209 384.47L387.732 170.896L538.878 254.787L416.209 384.472L416.209 384.47ZM387.288 169.694C387.288 169.694 387.281 169.694 387.276 169.694L317.571 24.5902L474.24 94.9625L387.29 169.696L387.288 169.694ZM176.313 132.92L153.511 41.5496L315.563 24.3429L176.316 132.92L176.313 132.92ZM152.859 41.9806L175.617 133.174C175.583 133.216 175.556 133.26 175.534 133.309L40.4117 164.311L152.859 41.9831L152.859 41.9806ZM39.3993 166.625L79.0625 319.585C79.0527 319.598 79.0453 319.612 79.0355 319.627L10.2501 323.23L39.3993 166.625ZM79.0723 320.359C79.1066 320.399 79.1434 320.433 79.185 320.462L82.8106 466.732L10.3898 323.959L79.0747 320.362L79.0723 320.359ZM223.051 473.964C223.09 474.017 223.137 474.067 223.191 474.106L224.157 552.55L84.632 468.772L223.051 473.966L223.051 473.964ZM223.926 474.138L383.304 530.641L224.894 552.783L223.926 474.138ZM416.096 385.946C416.123 385.934 416.148 385.924 416.172 385.907L516.48 421.947L385.425 529.843L416.096 385.944L416.096 385.946ZM516.906 421.322L416.489 385.243L538.871 255.865L516.906 421.325L516.906 421.322ZM387.891 170.145L474.765 95.4768L538.586 253.783L387.891 170.145Z" fill="#878887"/>
<path d="M405.304 185.095L382.48 198.408L359.656 185.095L359.656 158.513L382.48 145.245L405.304 158.513L405.304 185.095Z" fill="#5F605F"/>
<path d="M198.035 149.849L175.21 163.163L152.386 149.849L152.386 123.268L175.21 110L198.035 123.268L198.035 149.849Z" fill="#5F605F"/>
<path d="M59.4814 178.774L42.8819 188.127L26.2824 178.774L26.2824 160.1L42.8819 150.779L59.4814 160.1L59.4814 178.774Z" fill="#5F605F"/>
<path d="M175.678 51.511L159.079 60.8644L142.479 51.511L142.479 32.8366L159.079 23.5155L175.678 32.8366L175.678 51.511Z" fill="#5F605F"/>
<path d="M430.386 47.2366L416.386 55L402.386 47.2366L402.386 31.7366L416.386 24L430.386 31.7366L430.386 47.2366Z" fill="#5F605F"/>
<path d="M347.386 69.9844L330.886 79L314.386 69.9844L314.386 51.9844L330.886 43L347.386 51.9844L347.386 69.9844Z" fill="#5F605F"/>
<path d="M272.508 314.678L251.759 326.457L231.009 314.678L231.009 291.162L251.759 279.425L272.508 291.162L272.508 314.678Z" fill="#5F605F"/>
<path d="M553.317 265.921L536.717 275.275L520.118 265.921L520.118 247.247L536.717 237.926L553.317 247.247L553.317 265.921Z" fill="#5F605F"/>
<path d="M525.65 429.501L514.584 435.737L503.518 429.501L503.518 417.052L514.584 410.838L525.65 417.052L525.65 429.501Z" fill="#5F605F"/>
</svg>
