<svg width="1358" height="760" viewBox="0 0 1358 760" fill="none" xmlns="http://www.w3.org/2000/svg">
<g opacity="0.2">
<path d="M797.435 -282.286C797.394 -282.286 797.353 -282.286 797.312 -282.275C797.282 -282.275 797.253 -282.275 797.224 -282.269L795.333 -281.734L386.101 -229.101L383.788 -229.101C383.788 -229.101 383.741 -229.083 383.718 -229.083C383.665 -229.077 383.618 -229.071 383.565 -229.054C383.512 -229.03 383.471 -229.001 383.43 -228.966C383.413 -228.954 383.389 -228.948 383.377 -228.93L227.233 -74.991L85.7704 59.5531C85.7528 59.5708 85.7411 59.5943 85.7235 59.6178C85.7 59.653 85.6707 59.6823 85.653 59.7176C85.6354 59.7528 85.6237 59.794 85.6178 59.8293C85.612 59.8586 85.5943 59.8821 85.5943 59.9056L84.796 66.6977L21.2583 460.453L20.2428 464.907C20.2428 464.907 20.2428 464.931 20.2428 464.948C20.2369 464.989 20.2428 465.03 20.2428 465.072C20.2428 465.113 20.2428 465.148 20.2604 465.183C20.2604 465.195 20.2604 465.213 20.2604 465.224L98.5379 697.062L98.5379 697.068C98.5496 697.103 98.5731 697.126 98.5907 697.156C98.6083 697.191 98.6259 697.232 98.6494 697.267L98.6494 697.273L98.6553 697.273L205.191 821.459C205.191 821.459 205.221 821.482 205.238 821.494C205.25 821.506 205.262 821.523 205.279 821.541L395.241 969.893C395.241 969.893 395.253 969.893 395.258 969.904C395.288 969.928 395.329 969.94 395.364 969.957C395.399 969.975 395.435 969.993 395.47 969.998C395.476 969.998 395.481 970.004 395.493 970.004L557.789 999.97L775.851 1040.8C775.88 1040.8 775.903 1040.8 775.933 1040.8C775.974 1040.8 776.015 1040.8 776.056 1040.8C776.097 1040.8 776.132 1040.78 776.173 1040.77C776.197 1040.76 776.226 1040.76 776.25 1040.75L947.627 944.405L1123.11 864.803C1123.11 864.803 1123.16 864.773 1123.18 864.756C1123.2 864.744 1123.22 864.738 1123.24 864.72C1123.29 864.679 1123.34 864.626 1123.37 864.568L1235.19 675.681L1326.75 525.872C1326.75 525.872 1326.77 525.836 1326.77 525.813C1326.78 525.795 1326.79 525.778 1326.8 525.76C1326.82 525.695 1326.84 525.631 1326.84 525.566C1326.84 525.56 1326.84 525.549 1326.84 525.543L1316.57 287.889C1316.57 287.889 1316.56 287.871 1316.56 287.859C1316.56 287.824 1316.56 287.783 1316.54 287.748L1273.1 141.159C1273.1 141.159 1273.1 141.147 1273.09 141.135C1273.08 141.106 1273.08 141.07 1273.06 141.041L1153.32 -80.1205L1153.32 -80.1264C1153.32 -80.1264 1153.32 -80.1263 1153.31 -80.1322C1153.28 -80.1909 1153.24 -80.2379 1153.19 -80.2849C1153.18 -80.2967 1153.17 -80.3026 1153.16 -80.3143C1153.15 -80.3143 1153.14 -80.3261 1153.13 -80.332L1011.67 -176.421C1011.67 -176.421 1011.65 -176.427 1011.64 -176.432C1011.62 -176.444 1011.61 -176.456 1011.6 -176.462L797.646 -282.216C797.646 -282.216 797.593 -282.228 797.564 -282.239C797.523 -282.251 797.482 -282.269 797.441 -282.275L797.435 -282.286ZM1011.04 -175.439L1143.39 -85.5377L810.871 -274.384L1011.05 -175.439L1011.04 -175.439ZM1272 141.54L1313.48 281.566L1157.6 -69.7384L1271.99 141.54L1272 141.54ZM1325.65 525.402L1235.49 672.913L1315.54 291.408L1325.65 525.402ZM1122.45 863.804L949.529 942.242L1232.62 677.702L1122.45 863.804ZM395.845 968.882L209.547 823.392L555.018 998.266L395.851 968.882L395.845 968.882ZM99.6121 696.598L23.2013 470.277L203.612 817.822L99.6121 696.592L99.6121 696.598ZM57.9874 304.54C57.9874 304.54 57.9874 304.511 57.9874 304.493C57.9874 304.487 57.9874 304.481 57.9874 304.475L86.4807 62.3616L135.83 253.205L22.086 462.087L57.9874 304.534L57.9874 304.54ZM228.055 -74.1391L382.884 -226.78L311.357 -20.1428L88.0598 59.0184L228.049 -74.1273L228.055 -74.1391ZM86.739 60.2699L87.0149 60.0055L310.882 -19.3555L136.277 252.524L86.6862 60.7517L86.7449 60.264L86.739 60.2699ZM384.035 -227.914L385.162 -227.914L589.622 -185.475L312.132 -20.5835L383.835 -227.714L384.041 -227.914L384.035 -227.914ZM797.329 -281.07L797.411 -281.029L896.252 -96.1959L591.254 -185.675L795.815 -280.641L797.335 -281.07L797.329 -281.07ZM1152.35 -79.4448L1152.45 -79.2626L1134.66 116.916L897.66 -95.3734L1152.13 -79.6034L1152.35 -79.4507L1152.35 -79.4448ZM1315.39 287.994L1135.19 427.439L1135.19 118.209L1315.3 287.671L1315.39 287.994ZM1234.18 675.075L1234.12 675.175L1015.47 714.353L1134.89 428.796L1234.22 675.005L1234.19 675.064L1234.18 675.075ZM947.11 943.347C947.11 943.347 947.098 943.359 947.087 943.365C947.081 943.365 947.069 943.365 947.063 943.37L947.051 943.37L723.09 816.747L1014.53 715.211L947.216 943.294L947.104 943.341L947.11 943.347ZM558 998.824L557.807 998.789L413.215 801.729L721.752 816.946L558.018 998.818L558.006 998.818L558 998.824ZM206.042 820.654L205.949 820.542L215 554.897L412.053 801.159L206.148 820.736L206.042 820.654ZM647.026 316.644L906.313 201.442L842.406 526.694L647.026 316.644ZM841.977 527.1L517.027 570.132L646.597 317.043L841.977 527.094L841.977 527.1ZM646.768 316.115L611.324 41.7091L906.043 200.925L646.774 316.121L646.768 316.115ZM646.186 316.191L368.28 273.012L610.743 41.7855L646.186 316.191ZM646.081 316.767L516.517 569.844L368.162 273.582L646.081 316.761L646.081 316.767ZM842.112 527.67L722.304 816.106L517.08 570.714L842.112 527.67ZM906.888 201.536L1134.35 427.891L842.969 526.865L906.894 201.53L906.888 201.536ZM611.606 41.1861L896.551 -95.2734L906.395 200.437L611.606 41.1861ZM367.833 272.624L311.956 -19.5611L610.35 41.3448L367.833 272.624ZM516.023 570.173L215.211 553.822L367.634 273.84L516.023 570.173ZM516.07 570.767L412.546 800.836L215.37 554.421L516.07 570.767ZM516.587 571.043L721.729 816.341L413.062 801.118L516.587 571.043ZM842.67 527.852L1014.46 714.606L722.903 816.177L842.664 527.852L842.67 527.852ZM843.098 527.446L1134.37 428.508L1014.89 714.195L843.098 527.446ZM907.24 201.06L1134.6 117.933L1134.6 427.315L907.24 201.06ZM906.988 200.525L897.15 -95.0502L1134.34 117.404L906.988 200.525ZM611.213 40.722L590.744 -185.222L896.011 -95.6613L611.213 40.7278L611.213 40.722ZM610.631 40.8042L312.391 -20.0723L590.162 -185.134L610.631 40.8042ZM367.282 272.882L136.658 252.982L311.434 -19.1558L367.282 272.882ZM367.17 273.464L214.824 553.299L136.535 253.558L367.17 273.458L367.17 273.464ZM214.284 553.569L21.4227 465.001L21.6047 464.196L136.054 254.034L214.29 553.575L214.284 553.569ZM21.6751 465.759L214.431 554.28L205.379 819.884L205.285 819.772L21.9686 466.635L21.6751 465.765L21.6751 465.759ZM206.823 821.265L412.487 801.711L556.938 998.583L207.146 821.518L206.817 821.265L206.823 821.265ZM558.693 998.947L722.445 817.046L946.453 943.705L558.805 998.971L558.693 998.947ZM1015.21 714.994L1233.72 675.845L1233.69 675.904L947.944 942.924L1015.21 714.994ZM1135.25 428.12L1315.43 288.699L1315.44 289.034L1234.59 674.364L1135.25 428.12ZM1314.96 286.543L1135.2 117.404L1152.95 -78.3343L1154.05 -76.3131L1314.78 285.926L1314.96 286.543L1314.96 286.543ZM1151.17 -80.2556L897.015 -96.0079L798.309 -280.594L801.691 -278.92L1149.45 -81.4189L1151.17 -80.2556L1151.17 -80.2556ZM590.38 -185.927L388.009 -227.937L610.96 -228.513C610.96 -228.513 611.013 -228.525 611.036 -228.531C611.066 -228.531 611.089 -228.531 611.119 -228.537L792.252 -279.648L590.38 -185.927ZM560.607 999.306L945.044 944.499L775.856 1039.61L560.607 999.306ZM791.477 -280.647L610.878 -229.683L390.803 -229.112L791.477 -280.647ZM83.1935 80.3114L56.8369 304.299L23.2953 451.511L83.1935 80.3114Z" fill="#8C94AD"/>
<path d="M610.198 -230.11L609.928 -229.628L227.322 -75.3894C227.322 -75.3894 227.293 -75.3717 227.275 -75.3658C227.252 -75.3541 227.228 -75.3424 227.205 -75.3306C227.193 -75.3247 227.187 -75.3189 227.175 -75.313C227.152 -75.3013 227.134 -75.2836 227.111 -75.266C227.099 -75.2543 227.087 -75.2483 227.075 -75.2366C227.075 -75.2366 227.07 -75.2307 227.064 -75.2249C227.058 -75.219 227.046 -75.2072 227.04 -75.2013C227.023 -75.1837 227.005 -75.1602 226.987 -75.1426C226.976 -75.125 226.958 -75.1132 226.946 -75.0956C226.946 -75.0897 226.935 -75.0838 226.929 -75.072C226.917 -75.0544 226.905 -75.031 226.893 -75.0075C226.882 -74.9839 226.87 -74.9664 226.858 -74.9429C226.858 -74.9429 226.858 -74.937 226.852 -74.9311L56.6202 304.042C56.6202 304.042 56.6143 304.065 56.6085 304.077C56.6026 304.095 56.5967 304.106 56.5908 304.124C56.5908 304.124 56.5908 304.13 56.5908 304.136C56.5908 304.153 56.5791 304.171 56.5791 304.189C56.5791 304.206 56.5732 304.224 56.5674 304.241C56.5674 304.253 56.5615 304.271 56.5615 304.283C56.5615 304.283 56.5615 304.294 56.5615 304.3C56.5615 304.318 56.5615 304.336 56.5615 304.353C56.5615 304.377 56.5615 304.394 56.5615 304.412C56.5615 304.424 56.5615 304.435 56.5615 304.453C56.5615 304.459 56.5615 304.471 56.5615 304.477C56.5615 304.477 56.5615 304.488 56.5615 304.494L98.239 696.981C98.239 696.981 98.2449 697.022 98.2508 697.039C98.2508 697.057 98.2508 697.08 98.2625 697.098C98.2625 697.11 98.2684 697.116 98.2743 697.122C98.2801 697.151 98.2919 697.18 98.3036 697.21C98.3036 697.216 98.3036 697.227 98.3154 697.233C98.3154 697.233 98.3154 697.245 98.3212 697.251C98.3212 697.263 98.333 697.274 98.3388 697.286C98.3506 697.31 98.3682 697.339 98.3858 697.363C98.4034 697.386 98.4151 697.41 98.4328 697.433C98.4504 697.457 98.468 697.474 98.4915 697.498C98.5032 697.509 98.5091 697.521 98.5208 697.533C98.5208 697.533 98.5208 697.533 98.5208 697.539L395.024 970.082C395.042 970.1 395.065 970.111 395.083 970.129C395.101 970.147 395.118 970.158 395.142 970.176C395.147 970.176 395.153 970.182 395.159 970.188C395.183 970.199 395.206 970.211 395.23 970.223C395.253 970.235 395.271 970.246 395.294 970.252C395.3 970.252 395.306 970.252 395.312 970.258C395.335 970.264 395.359 970.27 395.382 970.276C395.388 970.276 395.4 970.276 395.406 970.282C395.417 970.282 395.429 970.293 395.447 970.293L395.459 970.293L775.81 1041.09C775.81 1041.09 775.816 1041.09 775.822 1041.09C775.834 1041.09 775.839 1041.09 775.851 1041.09C775.881 1041.09 775.904 1041.09 775.933 1041.09C775.957 1041.09 775.98 1041.09 776.004 1041.09L776.016 1041.09C776.016 1041.09 776.016 1041.09 776.021 1041.09C776.045 1041.09 776.068 1041.08 776.092 1041.08C776.115 1041.08 776.145 1041.07 776.168 1041.06C776.174 1041.06 776.186 1041.06 776.192 1041.06C776.209 1041.06 776.227 1041.05 776.245 1041.05C776.245 1041.05 776.25 1041.05 776.256 1041.05C776.28 1041.04 776.303 1041.03 776.327 1041.02C776.338 1041.02 776.344 1041.02 776.356 1041.01C776.356 1041.01 776.362 1041.01 776.368 1041.01L1123.27 865.051C1123.27 865.051 1123.28 865.039 1123.29 865.039C1123.31 865.027 1123.33 865.015 1123.35 865.004C1123.37 864.998 1123.37 864.992 1123.38 864.986C1123.4 864.974 1123.42 864.957 1123.44 864.945C1123.45 864.933 1123.47 864.927 1123.48 864.915C1123.48 864.915 1123.48 864.904 1123.49 864.904C1123.49 864.898 1123.51 864.886 1123.51 864.88C1123.52 864.863 1123.54 864.845 1123.55 864.833C1123.57 864.816 1123.58 864.798 1123.59 864.78C1123.6 864.769 1123.61 864.757 1123.62 864.745C1123.62 864.745 1123.62 864.739 1123.62 864.733L1327.01 526.026C1327.01 526.026 1327.02 526.008 1327.02 525.996C1327.04 525.961 1327.06 525.926 1327.07 525.891C1327.07 525.879 1327.07 525.873 1327.08 525.861C1327.08 525.849 1327.09 525.844 1327.09 525.832C1327.09 525.814 1327.1 525.796 1327.11 525.779C1327.13 525.714 1327.14 525.644 1327.14 525.573L1327.14 525.561C1327.14 525.561 1327.14 525.55 1327.14 525.544C1327.14 525.514 1327.14 525.485 1327.13 525.45L1273.42 141.207C1273.42 141.166 1273.4 141.13 1273.39 141.089C1273.39 141.077 1273.39 141.066 1273.38 141.054L1273.38 141.042C1273.36 140.972 1273.32 140.907 1273.28 140.848C1273.28 140.837 1273.26 140.825 1273.25 140.813C1273.25 140.807 1273.24 140.795 1273.23 140.784L1012.03 -176.478C1012.03 -176.478 1012.02 -176.484 1012.02 -176.49C1012.01 -176.496 1012 -176.502 1012 -176.508C1011.96 -176.543 1011.93 -176.578 1011.89 -176.607C1011.89 -176.607 1011.88 -176.613 1011.88 -176.619C1011.85 -176.643 1011.82 -176.66 1011.79 -176.678C1011.78 -176.678 1011.78 -176.684 1011.77 -176.69C1011.74 -176.707 1011.7 -176.719 1011.68 -176.731C1011.67 -176.731 1011.66 -176.743 1011.65 -176.743C1011.65 -176.743 1011.63 -176.743 1011.63 -176.743C1011.6 -176.754 1011.56 -176.76 1011.53 -176.766C1011.52 -176.766 1011.49 -176.778 1011.48 -176.778L611.841 -229.828C611.788 -230.069 611.642 -230.281 611.413 -230.41C610.99 -230.645 610.45 -230.492 610.215 -230.069L610.198 -230.11ZM721.154 473.357L765.485 870.862L323.497 641.938L721.154 473.357ZM321.983 639.394L409.136 138.663L719.886 470.707L321.983 639.394ZM724.059 472.952L1132.61 528.999L768.384 870.374L724.065 472.952L724.059 472.952ZM724.617 470.061L924.147 70.095L1133.38 526.137L724.617 470.061ZM722.017 468.692L411.22 136.589L921.64 68.5321L722.017 468.686L722.017 468.692ZM319.623 639.242L58.7863 304.723L406.964 137.464L319.629 639.236L319.623 639.242ZM764.328 872.918L396.251 968.354L321.76 643.695L764.328 872.918ZM1134.51 530.438L1122.02 863.411L769.934 872.137L1134.51 530.438ZM925.92 68.3383L1271.37 141.971L1135.52 525.174L925.92 68.3383ZM921.811 66.1467L409.893 134.403L610.972 -227.872L921.816 66.1467L921.811 66.1467ZM407.011 135.466C407.011 135.466 407.011 135.484 407.011 135.496L59.2089 302.567L227.885 -72.9452L407.017 135.46L407.011 135.466ZM318.866 641.139L99.8592 695.794L58.616 307.379L318.866 641.134L318.866 641.139ZM100.892 697.357L319.476 642.808C319.576 642.89 319.682 642.955 319.799 643.008L394.108 966.874L100.898 697.357L100.892 697.357ZM399.656 969.3L766.289 874.234C766.318 874.258 766.353 874.275 766.389 874.299L775.024 1039.17L399.656 969.3ZM768.144 874.211C768.238 874.128 768.32 874.04 768.39 873.94L1118.99 865.25L776.773 1038.83L768.15 874.205L768.144 874.211ZM1136.32 529.116C1136.45 529.022 1136.57 528.911 1136.66 528.781L1324.69 526.466L1123.88 860.885L1136.33 529.116L1136.32 529.116ZM1136.74 527.019L1272.17 145.014L1325.24 524.698L1136.74 527.019ZM925.35 66.4169C925.321 66.3523 925.297 66.2936 925.256 66.2348L1011.64 -174.187L1270.26 139.932L925.344 66.4169L925.35 66.4169ZM1010.14 -175.209L923.666 65.4768L613.555 -227.854L1010.15 -175.209L1010.14 -175.209ZM408.091 134.021L229.118 -74.2025L608.566 -227.172L408.091 134.021Z" fill="#8C94AD"/>
<path d="M625.719 15.6129L640.555 40.9539L625.719 66.2949L596.098 66.2949L581.313 40.9539L596.098 15.6129L625.719 15.6129Z" fill="#3F4C77"/>
<path d="M857.523 498.99L872.359 524.331L857.523 549.672L827.902 549.672L813.118 524.331L827.902 498.99L857.523 498.99Z" fill="#3F4C77"/>
<path d="M99.1855 34.5765L112.555 57.5041L99.1855 80.4316L72.4924 80.4316L59.1689 57.5041L72.4924 34.5765L99.1855 34.5765Z" fill="#3F4C77"/>
<path d="M1329.13 267.301L1342.5 290.229L1329.13 313.156L1302.44 313.156L1289.11 290.229L1302.44 267.301L1329.13 267.301Z" fill="#3F4C77"/>
<path d="M1098.97 428.052L1127.56 411.561L1156.15 395.126L1156.15 428.052L1156.15 460.979L1127.56 444.487L1098.97 428.052Z" fill="#3F4C77"/>
<path d="M977.75 714.646L1006.34 698.155L1034.93 681.72L1034.93 714.646L1034.93 747.572L1006.34 731.081L977.75 714.646Z" fill="#3F4C77"/>
<path d="M1218.17 142.318L1260.53 117.883L1302.89 93.5321L1302.89 142.318L1302.89 191.104L1260.53 166.668L1218.17 142.318Z" fill="#3F4C77"/>
<path d="M655.368 471.235L710.132 439.719L764.896 408.313L764.896 471.235L764.896 534.156L710.132 502.641L655.368 471.235Z" fill="#3F4C77"/>
<path d="M315.834 580.35L256.698 639.268L315.834 698.185L374.969 639.268L315.834 580.35Z" fill="#3F4C77"/>
<path d="M411.247 97.4656L375.297 133.283L411.247 169.101L447.197 133.283L411.247 97.4656Z" fill="#3F4C77"/>
<path d="M646.911 283.269L615.7 314.365L646.911 345.461L678.122 314.365L646.911 283.269Z" fill="#3F4C77"/>
<path d="M1135.54 481.083L1089.35 527.1L1135.54 573.116L1181.72 527.1L1135.54 481.083Z" fill="#3F4C77"/>
<path d="M63.9118 264.825L19.8291 308.746L63.9118 352.667L107.995 308.746L63.9118 264.825Z" fill="#3F4C77"/>
<path d="M926.771 20.8626L882.688 64.7832L926.771 108.704L970.854 64.7832L926.771 20.8626Z" fill="#3F4C77"/>
<path d="M1316.67 480.449L1272.58 524.369L1316.67 568.29L1360.75 524.369L1316.67 480.449Z" fill="#3F4C77"/>
<path d="M924.32 200.948C924.32 191.213 916.435 183.321 906.709 183.321C896.983 183.321 889.099 191.213 889.099 200.948C889.099 210.683 896.983 218.574 906.709 218.574C916.435 218.574 924.32 210.683 924.32 200.948Z" fill="#3F4C77"/>
<path d="M385.254 273.217C385.254 263.482 377.369 255.59 367.643 255.59C357.918 255.59 350.033 263.482 350.033 273.217C350.033 282.952 357.918 290.844 367.643 290.844C377.369 290.844 385.254 282.952 385.254 273.217Z" fill="#3F4C77"/>
<path d="M534.127 570.502C534.127 560.767 526.242 552.876 516.516 552.876C506.791 552.876 498.906 560.767 498.906 570.502C498.906 580.237 506.791 588.129 516.516 588.129C526.242 588.129 534.127 580.237 534.127 570.502Z" fill="#3F4C77"/>
<path d="M232.344 554.098C232.344 544.363 224.46 536.471 214.734 536.471C205.008 536.471 197.124 544.363 197.124 554.098C197.124 563.833 205.008 571.725 214.734 571.725C224.46 571.725 232.344 563.833 232.344 554.098Z" fill="#3F4C77"/>
<path d="M153.764 253.241C153.764 243.506 145.88 235.614 136.154 235.614C126.428 235.614 118.544 243.506 118.544 253.241C118.544 262.975 126.428 270.867 136.154 270.867C145.88 270.867 153.764 262.975 153.764 253.241Z" fill="#3F4C77"/>
<path d="M1152.51 117.522C1152.51 107.787 1144.63 99.8952 1134.9 99.8952C1125.18 99.8952 1117.29 107.787 1117.29 117.522C1117.29 127.257 1125.18 135.148 1134.9 135.148C1144.63 135.148 1152.51 127.257 1152.51 117.522Z" fill="#3F4C77"/>
<path d="M41.3581 465.041C41.3581 453.684 32.1597 444.477 20.8128 444.477C9.466 444.477 0.267577 453.684 0.267577 465.041C0.267578 476.398 9.46601 485.605 20.8128 485.605C32.1597 485.605 41.3581 476.398 41.3581 465.041Z" fill="#3F4C77"/>
<path d="M1255.23 675.375C1255.23 664.018 1246.03 654.811 1234.68 654.811C1223.34 654.811 1214.14 664.018 1214.14 675.375C1214.14 686.732 1223.34 695.939 1234.68 695.939C1246.03 695.939 1255.23 686.732 1255.23 675.375Z" fill="#3F4C77"/>
</g>
</svg>
