<svg width="434" height="427" viewBox="0 0 434 427" fill="none" xmlns="http://www.w3.org/2000/svg">
<path d="M427.768 250.696C427.768 250.683 427.768 250.67 427.765 250.658C427.765 250.648 427.765 250.639 427.763 250.63L427.596 250.04L411.182 122.37V121.649C411.182 121.649 411.176 121.634 411.176 121.627C411.175 121.61 411.173 121.595 411.167 121.579C411.16 121.562 411.151 121.55 411.14 121.537C411.136 121.531 411.134 121.524 411.129 121.52L363.121 72.8072L321.162 28.6743C321.157 28.6688 321.15 28.6651 321.142 28.6596C321.131 28.6523 321.122 28.6432 321.111 28.6377C321.1 28.6322 321.087 28.6285 321.076 28.6267C321.067 28.6248 321.06 28.6194 321.053 28.6194L318.934 28.3703L196.138 8.5481L194.749 8.23128C194.749 8.23128 194.742 8.23128 194.736 8.23128C194.723 8.22945 194.711 8.23128 194.698 8.23128C194.685 8.23128 194.674 8.23128 194.663 8.23678C194.659 8.23678 194.654 8.23678 194.65 8.23678L122.349 32.6574H122.348C122.337 32.6611 122.329 32.6684 122.32 32.6739C122.309 32.6794 122.296 32.6849 122.285 32.6922H122.283V32.694L83.555 65.9306C83.555 65.9306 83.5477 65.9398 83.544 65.9453C83.5403 65.949 83.5349 65.9526 83.5294 65.9581L37.2645 125.221C37.2645 125.221 37.2645 125.225 37.2608 125.227C37.2535 125.236 37.2498 125.249 37.2443 125.26C37.2388 125.271 37.2333 125.282 37.2315 125.293C37.2315 125.295 37.2297 125.296 37.2297 125.3L27.8847 175.932L15.1499 243.962C15.1499 243.971 15.1499 243.979 15.1499 243.988C15.1499 244.001 15.1499 244.014 15.1499 244.026C15.1517 244.039 15.1572 244.05 15.1609 244.063C15.1646 244.07 15.1646 244.08 15.1682 244.087L45.2132 297.552L70.0378 352.299C70.0378 352.299 70.047 352.314 70.0525 352.321C70.0561 352.327 70.0579 352.332 70.0634 352.338C70.0763 352.354 70.0928 352.369 70.1111 352.38L129.017 387.265L175.737 415.83C175.737 415.83 175.748 415.835 175.755 415.837C175.76 415.839 175.766 415.843 175.771 415.844C175.792 415.852 175.812 415.857 175.832 415.857C175.834 415.857 175.837 415.857 175.839 415.857L249.954 412.652C249.954 412.652 249.959 412.651 249.963 412.651C249.974 412.651 249.987 412.651 249.998 412.645L295.713 399.093C295.713 399.093 295.717 399.091 295.72 399.09C295.73 399.086 295.741 399.084 295.75 399.079L364.721 361.723H364.723C364.723 361.723 364.723 361.723 364.725 361.722C364.743 361.712 364.758 361.698 364.772 361.683C364.776 361.679 364.778 361.676 364.781 361.672C364.781 361.67 364.785 361.668 364.787 361.665L394.753 317.532C394.753 317.532 394.755 317.526 394.757 317.523C394.76 317.517 394.764 317.514 394.766 317.51L427.746 250.762C427.746 250.762 427.75 250.745 427.754 250.736C427.757 250.724 427.763 250.711 427.765 250.698L427.768 250.696ZM394.447 317.336L366.41 358.627L425.304 254.888L394.447 317.338V317.336ZM295.594 398.747L251.925 411.691L361.483 363.06L295.594 398.745V398.747ZM175.883 415.487L129.88 387.36L248.856 412.332L175.883 415.487ZM70.3493 352.092L45.8875 298.146L128.387 386.463L70.3493 352.092ZM37.5796 125.41L82.9522 67.2895L28.4161 175.068L37.5796 125.412V125.41ZM122.494 32.9925L193.074 9.15427L84.6892 65.438L122.496 32.9925H122.494ZM244.761 20.0067C244.761 20.0067 244.77 20.0067 244.776 20.0067C244.778 20.0067 244.779 20.0067 244.781 20.0067L320.287 28.8959L260.77 44.2918L195.629 8.80632L244.763 20.0067H244.761ZM362.856 73.0636L410.458 121.366L346.016 99.0519L321.329 29.3885L362.852 73.0618L362.856 73.0636ZM320.939 28.9765L321.021 29.0625L345.771 98.9035L260.983 44.431L320.789 28.96L320.941 28.9783L320.939 28.9765ZM410.812 121.725V122.077L397.577 185.864L346.154 99.2936L410.749 121.663L410.812 121.727V121.725ZM427.389 250.663L427.376 250.689L369.734 281.524L397.639 186.373L427.255 250.191L427.389 250.665V250.663ZM364.51 361.421L364.453 361.452L303.273 355.902L369.478 281.964L364.56 361.352L364.512 361.421H364.51ZM249.921 412.286L206.434 356.068H302.87L250.022 412.257L249.921 412.286ZM129.206 386.95L129.175 386.931L116.957 318.717L206.011 355.975L129.228 386.963L129.21 386.952L129.206 386.95ZM45.543 297.391C45.543 297.391 45.5393 297.387 45.5375 297.384C45.5375 297.382 45.5375 297.378 45.5357 297.376V297.373L85.0245 227.502L116.689 318.426L45.5595 297.424L45.5448 297.389L45.543 297.391ZM28.242 175.998L28.253 175.938L89.708 130.829L84.9622 227.085L28.2438 176.004V176L28.242 175.998ZM83.806 66.1962L83.8408 66.1669L166.685 68.9908L89.8858 130.466L83.7804 66.2292L83.806 66.1962ZM240.986 203.772L276.913 284.663L175.48 264.726L240.986 203.772ZM175.354 264.592L161.934 163.216L240.862 203.639L175.355 264.592H175.354ZM241.151 203.692L326.727 192.634L277.074 284.579L241.149 203.693L241.151 203.692ZM241.128 203.51L254.593 116.81L326.703 192.453L241.128 203.51ZM240.948 203.477L162.023 163.056L254.416 116.774L240.95 203.477H240.948ZM175.176 264.634L85.2243 227.257L161.752 163.232L175.176 264.634ZM276.884 284.843L206.293 355.806L175.427 264.902L276.886 284.845L276.884 284.843ZM326.89 192.722L369.447 281.618L277.227 284.689L326.89 192.722ZM254.714 116.671L345.835 99.2387L326.841 192.33L254.714 116.671ZM161.921 162.903L167.02 69.0567L254.335 116.609L161.921 162.903ZM161.736 162.917L89.9865 130.62L166.833 69.1062L161.736 162.917ZM161.65 163.078L85.151 227.078L89.8986 130.781L161.65 163.078ZM175.119 264.808L116.878 318.402L85.2023 227.444L175.119 264.806V264.808ZM175.246 264.942L206.1 355.812L117.006 318.535L175.246 264.942ZM277.032 284.953L302.956 355.883H206.472L277.032 284.953ZM277.199 284.874L369.377 281.805L303.121 355.801L277.199 284.874ZM327.035 192.599L397.498 186.213L369.568 281.449L327.033 192.599H327.035ZM327.009 192.418L345.994 99.3742L397.47 186.032L327.009 192.418ZM254.634 116.499L260.84 44.55L345.709 99.0757L254.634 116.499ZM254.452 116.464L167.183 68.9358L260.66 44.5115L254.454 116.464H254.452ZM167.099 68.7674L194.72 8.59938L194.971 8.65615L260.512 44.3614L167.097 68.7692L167.099 68.7674ZM194.483 8.67812L166.877 68.8131L84.0461 65.9893L84.0809 65.9599L194.21 8.76969L194.481 8.67812H194.483ZM83.6155 66.4398L89.7135 130.602L28.3171 175.667L83.5367 66.5405L83.6155 66.4379V66.4398ZM28.2035 176.214L84.9311 227.301L45.4312 297.186L28.1962 176.249L28.2035 176.214ZM116.757 318.638L128.966 386.807L128.948 386.796L45.6749 297.651L116.757 318.638ZM206.221 356.087L249.701 412.297L249.597 412.301L129.428 387.078L206.221 356.087ZM250.374 412.152L303.121 356.07L364.164 361.608L363.534 361.951L250.566 412.094L250.374 412.151V412.152ZM364.763 361.053L369.676 281.763L427.241 250.969L426.718 252.024L365.126 360.517L364.763 361.051V361.053ZM397.718 186.1L410.819 122.965L410.999 192.521C410.999 192.521 411.002 192.537 411.004 192.544C411.004 192.554 411.004 192.561 411.006 192.57L426.946 249.079L397.718 186.1ZM28.0918 176.811L45.1839 296.746L15.5219 243.964L28.0918 176.811ZM427.257 248.837L411.363 192.495L411.186 123.837L427.257 248.837ZM314.689 27.8703L244.836 19.6477L198.927 9.18357L314.689 27.8703Z" fill="black"/>
<path d="M175.287 270.276C178.323 270.276 180.784 267.816 180.784 264.782C180.784 261.748 178.323 259.288 175.287 259.288C172.251 259.288 169.79 261.748 169.79 264.782C169.79 267.816 172.251 270.276 175.287 270.276Z" fill="black"/>
<path d="M326.893 198.016C329.929 198.016 332.39 195.557 332.39 192.522C332.39 189.488 329.929 187.028 326.893 187.028C323.857 187.028 321.396 189.488 321.396 192.522C321.396 195.557 323.857 198.016 326.893 198.016Z" fill="black"/>
<path d="M277.068 290.282C280.104 290.282 282.565 287.822 282.565 284.788C282.565 281.754 280.104 279.294 277.068 279.294C274.032 279.294 271.571 281.754 271.571 284.788C271.571 287.822 274.032 290.282 277.068 290.282Z" fill="black"/>
<path d="M254.53 122.106C257.566 122.106 260.027 119.646 260.027 116.612C260.027 113.578 257.566 111.118 254.53 111.118C251.494 111.118 249.033 113.578 249.033 116.612C249.033 119.646 251.494 122.106 254.53 122.106Z" fill="black"/>
<path d="M161.818 168.551C164.854 168.551 167.315 166.092 167.315 163.057C167.315 160.023 164.854 157.563 161.818 157.563C158.782 157.563 156.321 160.023 156.321 163.057C156.321 166.092 158.782 168.551 161.818 168.551Z" fill="black"/>
<path d="M241.018 208.656C243.801 208.656 246.057 206.401 246.057 203.62C246.057 200.839 243.801 198.584 241.018 198.584C238.236 198.584 235.979 200.839 235.979 203.62C235.979 206.401 238.236 208.656 241.018 208.656Z" fill="black"/>
<path d="M85.0468 232.779C88.0828 232.779 90.5439 230.319 90.5439 227.285C90.5439 224.251 88.0828 221.791 85.0468 221.791C82.0109 221.791 79.5498 224.251 79.5498 227.285C79.5498 230.319 82.0109 232.779 85.0468 232.779Z" fill="black"/>
<path d="M89.8115 136.138C92.8474 136.138 95.3085 133.679 95.3085 130.644C95.3085 127.61 92.8474 125.15 89.8115 125.15C86.7756 125.15 84.3145 127.61 84.3145 130.644C84.3145 133.679 86.7756 136.138 89.8115 136.138Z" fill="black"/>
<path d="M166.935 74.402C169.97 74.402 172.432 71.9422 172.432 68.908C172.432 65.8738 169.97 63.4141 166.935 63.4141C163.899 63.4141 161.438 65.8738 161.438 68.908C161.438 71.9422 163.899 74.402 166.935 74.402Z" fill="black"/>
<path d="M260.76 49.8873C263.796 49.8873 266.257 47.4276 266.257 44.3934C266.257 41.3591 263.796 38.8994 260.76 38.8994C257.724 38.8994 255.263 41.3591 255.263 44.3934C255.263 47.4276 257.724 49.8873 260.76 49.8873Z" fill="black"/>
<path d="M345.95 104.619C348.986 104.619 351.447 102.159 351.447 99.1248C351.447 96.0906 348.986 93.6309 345.95 93.6309C342.914 93.6309 340.453 96.0906 340.453 99.1248C340.453 102.159 342.914 104.619 345.95 104.619Z" fill="black"/>
<path d="M397.622 191.605C400.657 191.605 403.119 189.145 403.119 186.111C403.119 183.077 400.657 180.617 397.622 180.617C394.586 180.617 392.125 183.077 392.125 186.111C392.125 189.145 394.586 191.605 397.622 191.605Z" fill="black"/>
<path d="M369.586 287.202C372.622 287.202 375.083 284.742 375.083 281.708C375.083 278.674 372.622 276.214 369.586 276.214C366.55 276.214 364.089 278.674 364.089 281.708C364.089 284.742 366.55 287.202 369.586 287.202Z" fill="black"/>
<path d="M303.085 361.472C306.121 361.472 308.582 359.013 308.582 355.978C308.582 352.944 306.121 350.484 303.085 350.484C300.049 350.484 297.588 352.944 297.588 355.978C297.588 359.013 300.049 361.472 303.085 361.472Z" fill="black"/>
<path d="M206.251 361.472C209.287 361.472 211.748 359.013 211.748 355.978C211.748 352.944 209.287 350.484 206.251 350.484C203.216 350.484 200.754 352.944 200.754 355.978C200.754 359.013 203.216 361.472 206.251 361.472Z" fill="black"/>
<path d="M116.836 324.062C119.872 324.062 122.333 321.602 122.333 318.568C122.333 315.534 119.872 313.074 116.836 313.074C113.8 313.074 111.339 315.534 111.339 318.568C111.339 321.602 113.8 324.062 116.836 324.062Z" fill="black"/>
<path d="M249.951 418.879C253.493 418.879 256.364 416.009 256.364 412.469C256.364 408.929 253.493 406.06 249.951 406.06C246.409 406.06 243.538 408.929 243.538 412.469C243.538 416.009 246.409 418.879 249.951 418.879Z" fill="black"/>
<path d="M28.0651 182.376C31.607 182.376 34.4783 179.506 34.4783 175.966C34.4783 172.426 31.607 169.557 28.0651 169.557C24.5231 169.557 21.6519 172.426 21.6519 175.966C21.6519 179.506 24.5231 182.376 28.0651 182.376Z" fill="black"/>
<path d="M194.708 14.8192C198.25 14.8192 201.121 11.9495 201.121 8.40962C201.121 4.86968 198.25 2 194.708 2C191.166 2 188.294 4.86968 188.294 8.40962C188.294 11.9495 191.166 14.8192 194.708 14.8192Z" fill="black"/>
<path d="M427.588 257.089C431.129 257.089 434.001 254.219 434.001 250.679C434.001 247.139 431.129 244.27 427.588 244.27C424.046 244.27 421.174 247.139 421.174 250.679C421.174 254.219 424.046 257.089 427.588 257.089Z" fill="black"/>
<path d="M129.113 393.516C132.655 393.516 135.527 390.647 135.527 387.107C135.527 383.567 132.655 380.697 129.113 380.697C125.571 380.697 122.7 383.567 122.7 387.107C122.7 390.647 125.571 393.516 129.113 393.516Z" fill="black"/>
<path d="M364.639 367.971C368.181 367.971 371.052 365.101 371.052 361.561C371.052 358.021 368.181 355.151 364.639 355.151C361.097 355.151 358.226 358.021 358.226 361.561C358.226 365.101 361.097 367.971 364.639 367.971Z" fill="black"/>
<path d="M83.673 72.4774C87.2149 72.4774 90.0862 69.6078 90.0862 66.0678C90.0862 62.5279 87.2149 59.6582 83.673 59.6582C80.1311 59.6582 77.2598 62.5279 77.2598 66.0678C77.2598 69.6078 80.1311 72.4774 83.673 72.4774Z" fill="black"/>
<path d="M321.029 35.2108C324.571 35.2108 327.443 32.3412 327.443 28.8012C327.443 25.2613 324.571 22.3916 321.029 22.3916C317.488 22.3916 314.616 25.2613 314.616 28.8012C314.616 32.3412 317.488 35.2108 321.029 35.2108Z" fill="black"/>
<path d="M45.379 303.878C48.9209 303.878 51.7922 301.008 51.7922 297.468C51.7922 293.928 48.9209 291.059 45.379 291.059C41.8371 291.059 38.9658 293.928 38.9658 297.468C38.9658 301.008 41.8371 303.878 45.379 303.878Z" fill="black"/>
<path d="M410.998 128.058C414.54 128.058 417.411 125.189 417.411 121.649C417.411 118.109 414.54 115.239 410.998 115.239C407.456 115.239 404.584 118.109 404.584 121.649C404.584 125.189 407.456 128.058 410.998 128.058Z" fill="black"/>
<path d="M411.497 192.283L411.347 192.199L363.246 72.8356C363.246 72.8356 363.24 72.8264 363.239 72.8209C363.235 72.8136 363.231 72.8063 363.228 72.7989C363.226 72.7953 363.224 72.7934 363.222 72.7898C363.219 72.7825 363.213 72.777 363.208 72.7696C363.204 72.766 363.202 72.7623 363.198 72.7586C363.198 72.7586 363.197 72.7568 363.195 72.755C363.193 72.7532 363.189 72.7495 363.187 72.7477C363.182 72.7422 363.175 72.7367 363.169 72.7312C363.164 72.7275 363.16 72.722 363.154 72.7184C363.153 72.7184 363.151 72.7147 363.147 72.7129C363.142 72.7092 363.134 72.7055 363.127 72.7019C363.12 72.6982 363.114 72.6945 363.107 72.6909C363.107 72.6909 363.105 72.6909 363.103 72.6891L244.917 19.5808C244.917 19.5808 244.909 19.579 244.906 19.5772C244.9 19.5753 244.897 19.5735 244.891 19.5717C244.891 19.5717 244.889 19.5717 244.888 19.5717C244.882 19.5717 244.877 19.568 244.871 19.568C244.866 19.568 244.86 19.5662 244.855 19.5643C244.851 19.5643 244.845 19.5625 244.842 19.5625C244.842 19.5625 244.838 19.5625 244.836 19.5625C244.831 19.5625 244.825 19.5625 244.82 19.5625C244.812 19.5625 244.807 19.5625 244.801 19.5625C244.798 19.5625 244.794 19.5625 244.789 19.5625C244.787 19.5625 244.783 19.5625 244.781 19.5625C244.781 19.5625 244.778 19.5625 244.776 19.5625L122.375 32.5649C122.375 32.5649 122.362 32.5667 122.357 32.5685C122.351 32.5685 122.344 32.5685 122.338 32.5722C122.335 32.5722 122.333 32.574 122.331 32.5759C122.322 32.5777 122.313 32.5813 122.304 32.585C122.302 32.585 122.298 32.585 122.296 32.5887C122.296 32.5887 122.293 32.5887 122.291 32.5905C122.287 32.5905 122.283 32.5942 122.28 32.596C122.272 32.5997 122.263 32.6052 122.256 32.6106C122.249 32.6161 122.241 32.6198 122.234 32.6253C122.227 32.6308 122.221 32.6363 122.214 32.6436C122.21 32.6473 122.207 32.6491 122.203 32.6528C122.203 32.6528 122.203 32.6528 122.201 32.6528L37.2059 125.155C37.2004 125.16 37.1967 125.167 37.1912 125.173C37.1857 125.178 37.1821 125.184 37.1766 125.191C37.1766 125.193 37.1747 125.195 37.1729 125.197C37.1693 125.204 37.1656 125.211 37.1619 125.219C37.1583 125.226 37.1546 125.231 37.1528 125.239C37.1528 125.241 37.1528 125.242 37.1509 125.244C37.1491 125.252 37.1473 125.259 37.1454 125.266C37.1454 125.268 37.1454 125.272 37.1436 125.274C37.1436 125.277 37.1399 125.281 37.1399 125.286V125.29L15.062 243.95C15.062 243.95 15.062 243.952 15.062 243.954C15.062 243.958 15.062 243.959 15.062 243.963C15.062 243.972 15.062 243.98 15.062 243.989C15.062 243.996 15.062 244.003 15.062 244.011V244.014C15.062 244.014 15.062 244.014 15.062 244.016C15.062 244.024 15.0638 244.031 15.0657 244.038C15.0657 244.046 15.0675 244.055 15.0693 244.062C15.0693 244.064 15.0693 244.068 15.0693 244.069C15.0693 244.075 15.073 244.08 15.0748 244.086C15.0748 244.086 15.0748 244.088 15.0748 244.09C15.0767 244.097 15.0803 244.104 15.0822 244.111C15.0822 244.115 15.084 244.117 15.0858 244.121C15.0858 244.121 15.0858 244.122 15.0858 244.124L69.9609 352.35C69.9609 352.35 69.9646 352.353 69.9646 352.355C69.9682 352.363 69.9719 352.368 69.9756 352.375C69.9774 352.379 69.9792 352.381 69.981 352.385C69.9847 352.39 69.9902 352.396 69.9939 352.401C69.9975 352.405 69.9994 352.41 70.003 352.414C70.003 352.414 70.0067 352.416 70.0067 352.418C70.0085 352.419 70.0122 352.423 70.014 352.425C70.0195 352.428 70.025 352.434 70.0287 352.438C70.0342 352.443 70.0397 352.447 70.0452 352.45C70.0488 352.452 70.0525 352.456 70.0562 352.458C70.0562 352.458 70.058 352.458 70.0598 352.46L175.689 415.911C175.689 415.911 175.695 415.913 175.698 415.915C175.709 415.92 175.72 415.926 175.731 415.931C175.735 415.931 175.737 415.931 175.74 415.933C175.744 415.933 175.746 415.935 175.749 415.937C175.755 415.937 175.76 415.94 175.766 415.942C175.786 415.948 175.808 415.951 175.83 415.951H175.834C175.834 415.951 175.837 415.951 175.839 415.951C175.848 415.951 175.858 415.951 175.869 415.95L295.698 399.193C295.711 399.193 295.722 399.188 295.735 399.184C295.739 399.184 295.742 399.184 295.746 399.18H295.75C295.772 399.173 295.792 399.162 295.81 399.149C295.814 399.147 295.818 399.144 295.821 399.14C295.823 399.138 295.827 399.136 295.83 399.134L394.771 317.644C394.771 317.644 394.773 317.643 394.775 317.641C394.777 317.639 394.779 317.637 394.781 317.635C394.792 317.624 394.803 317.615 394.812 317.602C394.812 317.6 394.814 317.599 394.815 317.597C394.823 317.588 394.828 317.579 394.834 317.569C394.834 317.568 394.836 317.566 394.837 317.564C394.843 317.555 394.847 317.544 394.85 317.535C394.85 317.533 394.854 317.529 394.854 317.527C394.854 317.525 394.854 317.522 394.854 317.52C394.858 317.511 394.859 317.5 394.861 317.491C394.861 317.485 394.865 317.478 394.865 317.472L411.409 192.796C411.484 192.78 411.55 192.734 411.591 192.662C411.664 192.531 411.616 192.362 411.484 192.289L411.497 192.283ZM192.114 226.899L68.1487 240.729L139.541 102.84L192.114 226.899ZM140.334 102.367L296.492 129.557L192.941 226.503L140.334 102.367ZM192.241 227.805L174.762 355.263L68.3008 241.634L192.241 227.807V227.805ZM193.142 227.979L317.875 290.228L175.654 355.503L193.142 227.979ZM193.569 227.168L297.139 130.207L318.363 289.446L193.571 227.168H193.569ZM140.382 101.631L244.704 20.2566L296.866 128.879L140.383 101.633L140.382 101.631ZM67.5074 240.368L37.7446 125.537L138.993 102.298L67.5074 240.368ZM174.313 355.855L70.4721 351.958L67.7511 242.117L174.313 355.855ZM318.423 290.781L295.46 398.554L175.955 356.17L318.423 290.781ZM319.107 289.499L297.82 129.793L410.799 192.525L319.107 289.501V289.499ZM297.489 128.894C297.489 128.894 297.483 128.894 297.479 128.894L245.377 20.3884L362.484 73.0114L297.49 128.896L297.489 128.894ZM139.79 101.395L122.745 33.0703L243.876 20.2035L139.792 101.395H139.79ZM122.258 33.3926L139.269 101.585C139.244 101.617 139.224 101.65 139.207 101.686L38.2064 124.869L122.258 33.3945V33.3926ZM37.4496 126.599L67.0969 240.98C67.0896 240.989 67.0841 241 67.0768 241.011L15.6612 243.705L37.4496 126.599ZM67.1043 241.559C67.1299 241.588 67.1574 241.614 67.1886 241.636L69.8986 351.013L15.7656 244.251L67.1061 241.56L67.1043 241.559ZM174.725 356.421C174.755 356.461 174.789 356.498 174.83 356.527L175.552 415.186L71.26 352.538L174.725 356.423V356.421ZM175.379 356.551L294.511 398.803L176.103 415.36L175.379 356.551ZM319.022 290.603C319.042 290.594 319.061 290.587 319.079 290.574L394.057 317.524L296.096 398.206L319.022 290.601V290.603ZM394.376 317.057L319.316 290.078L410.793 193.331L394.376 317.058V317.057ZM297.939 129.231L362.876 73.396L410.581 191.774L297.939 129.231Z" fill="black"/>
<path d="M139.627 110.113C144.181 110.113 147.873 106.423 147.873 101.872C147.873 97.3204 144.181 93.6309 139.627 93.6309C135.073 93.6309 131.382 97.3204 131.382 101.872C131.382 106.423 135.073 110.113 139.627 110.113Z" fill="black"/>
<path d="M244.805 27.6111C249.105 27.6111 252.592 24.1265 252.592 19.828C252.592 15.5295 249.105 12.0449 244.805 12.0449C240.504 12.0449 237.017 15.5295 237.017 19.828C237.017 24.1265 240.504 27.6111 244.805 27.6111Z" fill="black"/>
<path d="M295.664 406.703C299.965 406.703 303.452 403.218 303.452 398.92C303.452 394.621 299.965 391.137 295.664 391.137C291.364 391.137 287.877 394.621 287.877 398.92C287.877 403.218 291.364 406.703 295.664 406.703Z" fill="black"/>
<path d="M192.776 235.983C197.583 235.983 201.48 232.089 201.48 227.285C201.48 222.481 197.583 218.586 192.776 218.586C187.97 218.586 184.073 222.481 184.073 227.285C184.073 232.089 187.97 235.983 192.776 235.983Z" fill="black"/>
<path d="M192.776 235.983C197.583 235.983 201.48 232.089 201.48 227.285C201.48 222.481 197.583 218.586 192.776 218.586C187.97 218.586 184.073 222.481 184.073 227.285C184.073 232.089 187.97 235.983 192.776 235.983Z" fill="black"/>
<path d="M362.991 80.2619C367.038 80.2619 370.32 76.9822 370.32 72.9366C370.32 68.891 367.038 65.6113 362.991 65.6113C358.943 65.6113 355.661 68.891 355.661 72.9366C355.661 76.9822 358.943 80.2619 362.991 80.2619Z" fill="black"/>
<path d="M15.3304 251.322C19.3783 251.322 22.6597 248.043 22.6597 243.997C22.6597 239.952 19.3783 236.672 15.3304 236.672C11.2825 236.672 8.00098 239.952 8.00098 243.997C8.00098 248.043 11.2825 251.322 15.3304 251.322Z" fill="black"/>
<path d="M122.403 40.1554C126.451 40.1554 129.732 36.8758 129.732 32.8302C129.732 28.7845 126.451 25.5049 122.403 25.5049C118.355 25.5049 115.074 28.7845 115.074 32.8302C115.074 36.8758 118.355 40.1554 122.403 40.1554Z" fill="#F45B83"/>
<path d="M70.2074 360.007C74.5083 360.007 77.9949 356.522 77.9949 352.224C77.9949 347.925 74.5083 344.44 70.2074 344.44C65.9065 344.44 62.4199 347.925 62.4199 352.224C62.4199 356.522 65.9065 360.007 70.2074 360.007Z" fill="black"/>
<path d="M394.608 324.756C398.656 324.756 401.937 321.476 401.937 317.431C401.937 313.385 398.656 310.105 394.608 310.105C390.56 310.105 387.278 313.385 387.278 317.431C387.278 321.476 390.56 324.756 394.608 324.756Z" fill="#F45B83"/>
<path d="M297.576 137.583C302.13 137.583 305.821 133.894 305.821 129.342C305.821 124.791 302.13 121.102 297.576 121.102C293.022 121.102 289.33 124.791 289.33 129.342C289.33 133.894 293.022 137.583 297.576 137.583Z" fill="#F45B83"/>
<path d="M37.4081 133.119C41.709 133.119 45.1955 129.634 45.1955 125.336C45.1955 121.037 41.709 117.553 37.4081 117.553C33.1072 117.553 29.6206 121.037 29.6206 125.336C29.6206 129.634 33.1072 133.119 37.4081 133.119Z" fill="black"/>
<path d="M175.103 364.402C179.657 364.402 183.349 360.712 183.349 356.161C183.349 351.61 179.657 347.92 175.103 347.92C170.55 347.92 166.858 351.61 166.858 356.161C166.858 360.712 170.55 364.402 175.103 364.402Z" fill="black"/>
<path d="M318.831 298.433C323.384 298.433 327.076 294.743 327.076 290.192C327.076 285.641 323.384 281.951 318.831 281.951C314.277 281.951 310.585 285.641 310.585 290.192C310.585 294.743 314.277 298.433 318.831 298.433Z" fill="black"/>
<path d="M175.837 423C179.885 423 183.166 419.721 183.166 415.675C183.166 411.629 179.885 408.35 175.837 408.35C171.789 408.35 168.507 411.629 168.507 415.675C168.507 419.721 171.789 423 175.837 423Z" fill="black"/>
<path d="M411.364 200.304C415.665 200.304 419.152 196.82 419.152 192.521C419.152 188.223 415.665 184.738 411.364 184.738C407.063 184.738 403.577 188.223 403.577 192.521C403.577 196.82 407.063 200.304 411.364 200.304Z" fill="black"/>
<path d="M67.4584 249.506C72.0123 249.506 75.704 245.817 75.704 241.265C75.704 236.714 72.0123 233.024 67.4584 233.024C62.9046 233.024 59.2129 236.714 59.2129 241.265C59.2129 245.817 62.9046 249.506 67.4584 249.506Z" fill="#F45B83"/>
<path d="M276.986 292.701C281.54 292.701 285.231 289.011 285.231 284.46C285.231 279.908 281.54 276.219 276.986 276.219C272.432 276.219 268.74 279.908 268.74 284.46C268.74 289.011 272.432 292.701 276.986 292.701Z" fill="#F45B83"/>
<path d="M347.413 107.345C351.966 107.345 355.658 103.656 355.658 99.1042C355.658 94.5529 351.966 90.8633 347.413 90.8633C342.859 90.8633 339.167 94.5529 339.167 99.1042C339.167 103.656 342.859 107.345 347.413 107.345Z" fill="#F45B83"/>
<path d="M397.758 191.636C400.957 191.636 403.549 189.045 403.549 185.849C403.549 182.652 400.957 180.062 397.758 180.062C394.56 180.062 391.968 182.652 391.968 185.849C391.968 189.045 394.56 191.636 397.758 191.636Z" fill="#F45B83"/>
<path d="M193.227 16.6557C197.781 16.6557 201.473 12.9661 201.473 8.41476C201.473 3.86342 197.781 0.173828 193.227 0.173828C188.673 0.173828 184.981 3.86342 184.981 8.41476C184.981 12.9661 188.673 16.6557 193.227 16.6557Z" fill="#F45B83"/>
<path d="M334.866 197.125L326.963 201.753L319.061 197.125V187.884L326.963 183.271L334.866 187.884V197.125Z" fill="#7ACB71"/>
<path d="M184.121 269.442L176.218 274.071L168.315 269.442V260.201L176.218 255.589L184.121 260.201V269.442Z" fill="#7ACB71"/>
<path d="M79.5023 357.659L70.0942 363.149L60.686 357.659V346.699L70.0942 341.229L79.5023 346.699V357.659Z" fill="#7ACB71"/>
<path d="M34.4507 180.069L27.3006 184.24L20.1504 180.069V171.742L27.3006 167.585L34.4507 171.742V180.069Z" fill="#7ACB71"/>
<path d="M328.952 32.8601L321.802 37.0312L314.652 32.8601V24.5326L321.802 20.376L328.952 24.5326V32.8601Z" fill="#7ACB71"/>
<path d="M434.001 255.072L426.851 259.243L419.701 255.072V246.744L426.851 242.588L434.001 246.744V255.072Z" fill="#7ACB71"/>
<path d="M256.375 416.572L249.225 420.743L242.075 416.572V408.244L249.225 404.088L256.375 408.244V416.572Z" fill="#7ACB71"/>
<path d="M241.053 192.836L246.196 201.755L251.321 210.673H241.053H230.785L235.928 201.755L241.053 192.836Z" fill="#F8BE08"/>
<path d="M206.243 344.769L211.386 353.687L216.512 362.606H206.243H195.975L201.118 353.687L206.243 344.769Z" fill="#F8BE08"/>
<path d="M89.7703 119.125L94.9133 128.044L100.039 136.962H89.7703H79.502L84.645 128.044L89.7703 119.125Z" fill="#F8BE08"/>
<path d="M116.866 306.95L122.009 315.869L127.134 324.787H116.866H106.598L111.741 315.869L116.866 306.95Z" fill="#F8BE08"/>
<path d="M363.09 55.7256L370.71 68.9423L378.304 82.159H363.09H347.875L355.496 68.9423L363.09 55.7256Z" fill="#F8BE08"/>
<path d="M83.7494 46.4863L91.3698 59.703L98.9637 72.9197H83.7494H68.5352L76.1555 59.703L83.7494 46.4863Z" fill="#F8BE08"/>
<path d="M15.3657 227.328L22.986 240.545L30.5799 253.762H15.3657H0.151367L7.77169 240.545L15.3657 227.328Z" fill="#F8BE08"/>
<path d="M295.352 381.954L302.972 395.171L310.566 408.387H295.352H280.138L287.758 395.171L295.352 381.954Z" fill="#F8BE08"/>
<path d="M192.776 206.375L202.605 223.46L212.399 240.545H192.776H173.154L182.982 223.46L192.776 206.375Z" fill="#F8BE08"/>
<path d="M166.946 101.846L144.497 79.3057L122.047 101.846L144.497 124.387L166.946 101.846Z" fill="#3F4C77"/>
<path d="M56.9508 296.611L42.6001 282.202L28.2493 296.611L42.6001 311.02L56.9508 296.611Z" fill="#3F4C77"/>
<path d="M51.8625 125.582L37.5117 111.173L23.161 125.582L37.5117 139.991L51.8625 125.582Z" fill="#3F4C77"/>
<path d="M426.905 191.8L412.555 177.391L398.204 191.8L412.555 206.209L426.905 191.8Z" fill="#3F4C77"/>
<path d="M268.948 115.266L254.598 100.857L240.247 115.266L254.598 129.676L268.948 115.266Z" fill="#3F4C77"/>
<path d="M189.705 356.177L175.354 341.768L161.003 356.177L175.354 370.586L189.705 356.177Z" fill="#3F4C77"/>
<path d="M257.147 21.8553L243.45 8.10254L229.753 21.8553L243.45 35.608L257.147 21.8553Z" fill="#3F4C77"/>
<path d="M425.375 122.346L411.678 108.593L397.981 122.346L411.678 136.098L425.375 122.346Z" fill="#3F4C77"/>
<path d="M333.229 291.046L319.532 277.293L305.835 291.046L319.532 304.798L333.229 291.046Z" fill="#3F4C77"/>
<path d="M189.903 412.683L176.206 398.931L162.509 412.683L176.206 426.436L189.903 412.683Z" fill="#3F4C77"/>
</svg>
