<svg width="1364" height="641" viewBox="0 0 1364 641" fill="none" xmlns="http://www.w3.org/2000/svg">
<g style="mix-blend-mode:multiply">
<path d="M1363.95 523.471L1174.76 633.547L985.582 523.471V303.701L1174.76 194.007L1363.95 303.701V523.471Z" fill="#F7F9FA"/>
</g>
<path d="M1261.52 640.539C1257.44 640.539 1254.14 637.231 1254.14 633.15C1254.14 629.069 1257.44 625.76 1261.52 625.76C1265.6 625.76 1268.9 629.069 1268.9 633.15C1268.9 637.231 1265.6 640.539 1261.52 640.539Z" fill="#E4F2E3"/>
<path d="M1261.52 608.244C1257.44 608.244 1254.14 604.935 1254.14 600.854C1254.14 596.773 1257.44 593.465 1261.52 593.465C1265.6 593.465 1268.9 596.773 1268.9 600.854C1268.9 604.935 1265.6 608.244 1261.52 608.244Z" fill="#E4F2E3"/>
<path d="M1227.48 640.539C1223.4 640.539 1220.1 637.231 1220.1 633.15C1220.1 629.069 1223.4 625.76 1227.48 625.76C1231.56 625.76 1234.86 629.069 1234.86 633.15C1234.86 637.231 1231.56 640.539 1227.48 640.539Z" fill="#E4F2E3"/>
<path d="M1228.71 608.244C1224.64 608.244 1221.33 604.935 1221.33 600.854C1221.33 596.773 1224.64 593.465 1228.71 593.465C1232.79 593.465 1236.09 596.773 1236.09 600.854C1236.09 604.935 1232.79 608.244 1228.71 608.244Z" fill="#E4F2E3"/>
<path d="M1194.67 640.539C1190.6 640.539 1187.29 637.231 1187.29 633.15C1187.29 629.069 1190.6 625.76 1194.67 625.76C1198.75 625.76 1202.06 629.069 1202.06 633.15C1202.06 637.231 1198.75 640.539 1194.67 640.539Z" fill="#E4F2E3"/>
<path d="M1260.29 608.244C1256.21 608.244 1252.91 604.935 1252.91 600.854C1252.91 596.773 1256.21 593.465 1260.29 593.465C1264.37 593.465 1267.67 596.773 1267.67 600.854C1267.67 604.935 1264.37 608.244 1260.29 608.244Z" fill="#E4F2E3"/>
<path d="M1261.52 575.402C1257.44 575.402 1254.14 572.094 1254.14 568.013C1254.14 563.931 1257.44 560.623 1261.52 560.623C1265.6 560.623 1268.9 563.931 1268.9 568.013C1268.9 572.094 1265.6 575.402 1261.52 575.402Z" fill="#E4F2E3"/>
<g style="mix-blend-mode:multiply">
<path d="M219.684 23.5157C341.012 23.5157 439.368 121.91 439.368 243.286C439.368 364.661 341.012 463.056 219.684 463.056C98.3559 463.056 0 364.661 0 243.286C0 121.91 98.3559 23.5157 219.684 23.5157Z" fill="#F7F9FA"/>
</g>
<path d="M104.242 0.539492C108.319 0.539492 111.624 3.84794 111.624 7.92907C111.624 12.0102 108.319 15.3186 104.242 15.3186C100.165 15.3186 96.8604 12.0102 96.8604 7.92907C96.8604 3.84794 100.165 0.539492 104.242 0.539492Z" fill="#FEEFF3"/>
<path d="M104.242 32.8344C108.319 32.8344 111.624 36.1429 111.624 40.224C111.624 44.3051 108.319 47.6135 104.242 47.6135C100.165 47.6135 96.8604 44.3051 96.8604 40.224C96.8604 36.1429 100.165 32.8344 104.242 32.8344Z" fill="#FEEFF3"/>
<path d="M138.28 0.539492C142.357 0.539492 145.662 3.84794 145.662 7.92907C145.662 12.0102 142.357 15.3186 138.28 15.3186C134.203 15.3186 130.898 12.0102 130.898 7.92907C130.898 3.84794 134.203 0.539492 138.28 0.539492Z" fill="#FEEFF3"/>
<path d="M137.05 32.8344C141.127 32.8344 144.431 36.1429 144.431 40.224C144.431 44.3051 141.127 47.6135 137.05 47.6135C132.973 47.6135 129.668 44.3051 129.668 40.224C129.668 36.1429 132.973 32.8344 137.05 32.8344Z" fill="#FEEFF3"/>
<path d="M171.088 0.539492C175.165 0.539492 178.469 3.84794 178.469 7.92907C178.469 12.0102 175.165 15.3186 171.088 15.3186C167.011 15.3186 163.706 12.0102 163.706 7.92907C163.706 3.84794 167.011 0.539492 171.088 0.539492Z" fill="#FEEFF3"/>
<path d="M105.473 32.8344C109.549 32.8344 112.854 36.1429 112.854 40.224C112.854 44.3051 109.549 47.6135 105.473 47.6135C101.396 47.6135 98.0908 44.3051 98.0908 40.224C98.0908 36.1429 101.396 32.8344 105.473 32.8344Z" fill="#FEEFF3"/>
<path d="M104.242 65.677C108.319 65.677 111.624 68.9854 111.624 73.0665C111.624 77.1476 108.319 80.4561 104.242 80.4561C100.165 80.4561 96.8604 77.1476 96.8604 73.0665C96.8604 68.9854 100.165 65.677 104.242 65.677Z" fill="#FEEFF3"/>
</svg>
