{
	"asset":{
		"generator":"Khronos glTF Blender I/O v3.5.30",
		"version":"2.0"
	},
	"scene":0,
	"scenes":[
		{
			"name":"Scene",
			"nodes":[
				0
			]
		}
	],
	"nodes":[
		{
			"mesh":0,
			"name":"Icosphere",
			"translation":[
				-0.11016273498535156,
				0.013176441192626953,
				0.23364639282226562
			]
		}
	],
	"meshes":[
		{
			"name":"Icosphere.001",
			"primitives":[
				{
					"attributes":{
						"POSITION":0
					},
					"indices":1
				}
			]
		}
	],
	"accessors":[
		{
			"bufferView":0,
			"componentType":5126,
			"count":42,
			"max":[
				0.9510578513145447,
				1,
				0.9999999403953552
			],
			"min":[
				-0.9510578513145447,
				-1,
				-0.9999999403953552
			],
			"type":"VEC3"
		},
		{
			"bufferView":1,
			"componentType":5123,
			"count":240,
			"type":"SCALAR"
		}
	],
	"bufferViews":[
		{
			"buffer":0,
			"byteLength":504,
			"byteOffset":0,
			"target":34962
		},
		{
			"buffer":0,
			"byteLength":480,
			"byteOffset":504,
			"target":34963
		}
	],
	"buffers":[
		{
			"byteLength":984,
			"uri":"data:application/octet-stream;base64,"
		}
	]
}
