{
	"asset":{
		"generator":"Khronos glTF Blender I/O v3.5.30",
		"version":"2.0"
	},
	"scene":0,
	"scenes":[
		{
			"name":"Scene",
			"nodes":[
				0
			]
		}
	],
	"nodes":[
		{
			"mesh":0,
			"name":"WireIsosphere.024",
			"rotation":[
				0.9984328746795654,
				-0.009109369479119778,
				-0.02570732869207859,
				0.04886840283870697
			],
			"scale":[
				0.17404715716838837,
				0.2006848305463791,
				0.2006848305463791
			],
			"translation":[
				-0.008672491647303104,
				-1.7386449575424194,
				-0.0026639169082045555
			]
		}
	],
	"materials":[
		{
			"doubleSided":true,
			"name":"Yellow",
			"pbrMetallicRoughness":{
				"baseColorFactor":[
					0.9386856555938721,
					0.5149171352386475,
					0.002428386826068163,
					1
				],
				"metallicFactor":0,
				"roughnessFactor":0.5
			}
		},
		{
			"doubleSided":true,
			"name":"Green",
			"pbrMetallicRoughness":{
				"baseColorFactor":[
					0.19461733102798462,
					0.5972017645835876,
					0.1651323437690735,
					1
				],
				"metallicFactor":0,
				"roughnessFactor":0.5
			}
		},
		{
			"doubleSided":true,
			"name":"Blue",
			"pbrMetallicRoughness":{
				"baseColorFactor":[
					0.049706414341926575,
					0.07227174937725067,
					0.18447495996952057,
					1
				],
				"metallicFactor":0,
				"roughnessFactor":0.5
			}
		},
		{
			"doubleSided":true,
			"name":"Pink",
			"pbrMetallicRoughness":{
				"baseColorFactor":[
					0.9046612977981567,
					0.10461616516113281,
					0.215860515832901,
					1
				],
				"metallicFactor":0,
				"roughnessFactor":0.5
			}
		},
		{
			"doubleSided":true,
			"name":"Black",
			"pbrMetallicRoughness":{
				"baseColorFactor":[
					0.002579350955784321,
					0.002579350955784321,
					0.002579350955784321,
					1
				],
				"metallicFactor":0,
				"roughnessFactor":0.5
			}
		}
	],
	"meshes":[
		{
			"name":"Plane.106",
			"primitives":[
				{
					"attributes":{
						"POSITION":0
					},
					"indices":1,
					"material":0
				},
				{
					"attributes":{
						"POSITION":2
					},
					"indices":3,
					"material":1
				},
				{
					"attributes":{
						"POSITION":4
					},
					"indices":5,
					"material":2
				},
				{
					"attributes":{
						"POSITION":6
					},
					"indices":7,
					"material":3
				},
				{
					"attributes":{
						"POSITION":8
					},
					"indices":9,
					"material":4
				}
			]
		}
	],
	"accessors":[
		{
			"bufferView":0,
			"componentType":5126,
			"count":21,
			"max":[
				8.982120513916016,
				-3.617851734161377,
				7.839410781860352
			],
			"min":[
				-10.222307205200195,
				-16.471172332763672,
				-9.516047477722168
			],
			"type":"VEC3"
		},
		{
			"bufferView":1,
			"componentType":5123,
			"count":21,
			"type":"SCALAR"
		},
		{
			"bufferView":2,
			"componentType":5126,
			"count":42,
			"max":[
				9.65007495880127,
				-1.9073486328125e-06,
				4.233930587768555
			],
			"min":[
				-9.112125396728516,
				-16.387540817260742,
				-7.896942138671875
			],
			"type":"VEC3"
		},
		{
			"bufferView":3,
			"componentType":5123,
			"count":84,
			"type":"SCALAR"
		},
		{
			"bufferView":4,
			"componentType":5126,
			"count":40,
			"max":[
				9.120457649230957,
				-0.4475707709789276,
				6.502729892730713
			],
			"min":[
				-9.470024108886719,
				-16.888225555419922,
				-8.619104385375977
			],
			"type":"VEC3"
		},
		{
			"bufferView":5,
			"componentType":5123,
			"count":60,
			"type":"SCALAR"
		},
		{
			"bufferView":6,
			"componentType":5126,
			"count":352,
			"max":[
				9.372385025024414,
				-0.8517518043518066,
				6.662347793579102
			],
			"min":[
				-6.854650497436523,
				-17.328886032104492,
				-8.872879981994629
			],
			"type":"VEC3"
		},
		{
			"bufferView":7,
			"componentType":5123,
			"count":990,
			"type":"SCALAR"
		},
		{
			"bufferView":8,
			"componentType":5126,
			"count":81413,
			"max":[
				9.39759635925293,
				-0.07194042205810547,
				7.675327301025391
			],
			"min":[
				-9.713252067565918,
				-17.168296813964844,
				-9.388954162597656
			],
			"type":"VEC3"
		},
		{
			"bufferView":9,
			"componentType":5125,
			"count":488685,
			"type":"SCALAR"
		}
	],
	"bufferViews":[
		{
			"buffer":0,
			"byteLength":252,
			"byteOffset":0,
			"target":34962
		},
		{
			"buffer":0,
			"byteLength":42,
			"byteOffset":252,
			"target":34963
		},
		{
			"buffer":0,
			"byteLength":504,
			"byteOffset":296,
			"target":34962
		},
		{
			"buffer":0,
			"byteLength":168,
			"byteOffset":800,
			"target":34963
		},
		{
			"buffer":0,
			"byteLength":480,
			"byteOffset":968,
			"target":34962
		},
		{
			"buffer":0,
			"byteLength":120,
			"byteOffset":1448,
			"target":34963
		},
		{
			"buffer":0,
			"byteLength":4224,
			"byteOffset":1568,
			"target":34962
		},
		{
			"buffer":0,
			"byteLength":1980,
			"byteOffset":5792,
			"target":34963
		},
		{
			"buffer":0,
			"byteLength":976956,
			"byteOffset":7772,
			"target":34962
		},
		{
			"buffer":0,
			"byteLength":1954740,
			"byteOffset":984728,
			"target":34963
		}
	],
	"buffers":[
		{
			"byteLength":2939468,
			"uri":"data:application/octet-stream;base64,"
		}
	]
}
