{
	"asset":{
		"generator":"Khronos glTF Blender I/O v3.5.30",
		"version":"2.0"
	},
	"scene":0,
	"scenes":[
		{
			"name":"Scene",
			"nodes":[
				0
			]
		}
	],
	"nodes":[
		{
			"mesh":0,
			"name":"WireIsosphere.024",
			"rotation":[
				0.08395382016897202,
				0.9648142457008362,
				0.1896345317363739,
				0.16162940859794617
			],
			"scale":[
				0.17404714226722717,
				0.2006848305463791,
				0.2006848305463791
			],
			"translation":[
				-0.32091158628463745,
				-0.12786650657653809,
				-0.5733133554458618
			]
		}
	],
	"materials":[
		{
			"doubleSided":true,
			"name":"Yellow",
			"pbrMetallicRoughness":{
				"baseColorFactor":[
					0.9386856555938721,
					0.5149171352386475,
					0.002428386826068163,
					1
				],
				"metallicFactor":0,
				"roughnessFactor":0.5
			}
		},
		{
			"doubleSided":true,
			"name":"Green",
			"pbrMetallicRoughness":{
				"baseColorFactor":[
					0.19461733102798462,
					0.5972017645835876,
					0.1651323437690735,
					1
				],
				"metallicFactor":0,
				"roughnessFactor":0.5
			}
		},
		{
			"doubleSided":true,
			"name":"Blue",
			"pbrMetallicRoughness":{
				"baseColorFactor":[
					0.049706414341926575,
					0.07227174937725067,
					0.18447495996952057,
					1
				],
				"metallicFactor":0,
				"roughnessFactor":0.5
			}
		},
		{
			"doubleSided":true,
			"name":"Pink",
			"pbrMetallicRoughness":{
				"baseColorFactor":[
					0.9046612977981567,
					0.10461616516113281,
					0.215860515832901,
					1
				],
				"metallicFactor":0,
				"roughnessFactor":0.5
			}
		},
		{
			"doubleSided":true,
			"name":"Black",
			"pbrMetallicRoughness":{
				"baseColorFactor":[
					0.002579350955784321,
					0.002579350955784321,
					0.002579350955784321,
					1
				],
				"metallicFactor":0,
				"roughnessFactor":0.5
			}
		}
	],
	"meshes":[
		{
			"name":"Plane.106",
			"primitives":[
				{
					"attributes":{
						"POSITION":0
					},
					"indices":1,
					"material":0
				},
				{
					"attributes":{
						"POSITION":2
					},
					"indices":3,
					"material":1
				},
				{
					"attributes":{
						"POSITION":4
					},
					"indices":5,
					"material":2
				},
				{
					"attributes":{
						"POSITION":6
					},
					"indices":7,
					"material":3
				},
				{
					"attributes":{
						"POSITION":8
					},
					"indices":9,
					"material":4
				}
			]
		}
	],
	"accessors":[
		{
			"bufferView":0,
			"componentType":5126,
			"count":21,
			"max":[
				9.136027336120605,
				4.995641231536865,
				8.68760871887207
			],
			"min":[
				-10.068400382995605,
				-7.85767936706543,
				-8.66784954071045
			],
			"type":"VEC3"
		},
		{
			"bufferView":1,
			"componentType":5123,
			"count":21,
			"type":"SCALAR"
		},
		{
			"bufferView":2,
			"componentType":5126,
			"count":42,
			"max":[
				9.80398178100586,
				8.61349105834961,
				5.082128524780273
			],
			"min":[
				-8.958218574523926,
				-7.7740478515625,
				-7.048744201660156
			],
			"type":"VEC3"
		},
		{
			"bufferView":3,
			"componentType":5123,
			"count":84,
			"type":"SCALAR"
		},
		{
			"bufferView":4,
			"componentType":5126,
			"count":40,
			"max":[
				9.274364471435547,
				8.165922164916992,
				7.350927829742432
			],
			"min":[
				-9.316117286682129,
				-8.27473258972168,
				-7.770906448364258
			],
			"type":"VEC3"
		},
		{
			"bufferView":5,
			"componentType":5123,
			"count":60,
			"type":"SCALAR"
		},
		{
			"bufferView":6,
			"componentType":5126,
			"count":352,
			"max":[
				9.526291847229004,
				7.7617411613464355,
				7.51054573059082
			],
			"min":[
				-6.700744152069092,
				-8.71539306640625,
				-8.02468204498291
			],
			"type":"VEC3"
		},
		{
			"bufferView":7,
			"componentType":5123,
			"count":990,
			"type":"SCALAR"
		},
		{
			"bufferView":8,
			"componentType":5126,
			"count":81413,
			"max":[
				9.55150318145752,
				8.541552543640137,
				8.52352523803711
			],
			"min":[
				-9.559345245361328,
				-8.554803848266602,
				-8.540756225585938
			],
			"type":"VEC3"
		},
		{
			"bufferView":9,
			"componentType":5125,
			"count":488685,
			"type":"SCALAR"
		}
	],
	"bufferViews":[
		{
			"buffer":0,
			"byteLength":252,
			"byteOffset":0,
			"target":34962
		},
		{
			"buffer":0,
			"byteLength":42,
			"byteOffset":252,
			"target":34963
		},
		{
			"buffer":0,
			"byteLength":504,
			"byteOffset":296,
			"target":34962
		},
		{
			"buffer":0,
			"byteLength":168,
			"byteOffset":800,
			"target":34963
		},
		{
			"buffer":0,
			"byteLength":480,
			"byteOffset":968,
			"target":34962
		},
		{
			"buffer":0,
			"byteLength":120,
			"byteOffset":1448,
			"target":34963
		},
		{
			"buffer":0,
			"byteLength":4224,
			"byteOffset":1568,
			"target":34962
		},
		{
			"buffer":0,
			"byteLength":1980,
			"byteOffset":5792,
			"target":34963
		},
		{
			"buffer":0,
			"byteLength":976956,
			"byteOffset":7772,
			"target":34962
		},
		{
			"buffer":0,
			"byteLength":1954740,
			"byteOffset":984728,
			"target":34963
		}
	],
	"buffers":[
		{
			"byteLength":2939468,
			"uri":"data:application/octet-stream;base64,"
		}
	]
}
