{
	"asset":{
		"generator":"Khronos glTF Blender I/O v3.5.30",
		"version":"2.0"
	},
	"scene":0,
	"scenes":[
		{
			"name":"Scene",
			"nodes":[
				0,
				1,
				2,
				3,
				4
			]
		}
	],
	"nodes":[
		{
			"mesh":0,
			"name":"Icosphere"
		},
		{
			"mesh":1,
			"name":"wireframe1"
		},
		{
			"mesh":2,
			"name":"wireisosphereV3",
			"translation":[
				-0.45234254002571106,
				0.9046850800514221,
				-1.3921407461166382
			]
		},
		{
			"name":"Icosphere.001"
		},
		{
			"mesh":3,
			"name":"wireisosphereV4.001",
			"translation":[
				-0.45234254002571106,
				0.9046850800514221,
				-1.3921407461166382
			]
		}
	],
	"materials":[
		{
			"doubleSided":true,
			"name":"Black",
			"pbrMetallicRoughness":{
				"baseColorFactor":[
					0.002579350955784321,
					0.002579350955784321,
					0.002579350955784321,
					1
				],
				"metallicFactor":0,
				"roughnessFactor":0.5
			}
		},
		{
			"doubleSided":true,
			"name":"Yellow",
			"pbrMetallicRoughness":{
				"baseColorFactor":[
					0.9386856555938721,
					0.5149171352386475,
					0.002428386826068163,
					1
				],
				"metallicFactor":0,
				"roughnessFactor":0.5
			}
		},
		{
			"doubleSided":true,
			"name":"Green",
			"pbrMetallicRoughness":{
				"baseColorFactor":[
					0.19461733102798462,
					0.5972017645835876,
					0.1651323437690735,
					1
				],
				"metallicFactor":0,
				"roughnessFactor":0.5
			}
		},
		{
			"doubleSided":true,
			"name":"Blue",
			"pbrMetallicRoughness":{
				"baseColorFactor":[
					0.049706414341926575,
					0.07227174937725067,
					0.18447495996952057,
					1
				],
				"metallicFactor":0,
				"roughnessFactor":0.5
			}
		},
		{
			"doubleSided":true,
			"name":"Pink",
			"pbrMetallicRoughness":{
				"baseColorFactor":[
					0.9046612977981567,
					0.10461616516113281,
					0.215860515832901,
					1
				],
				"metallicFactor":0,
				"roughnessFactor":0.5
			}
		},
		{
			"doubleSided":true,
			"name":"Yellow.001",
			"pbrMetallicRoughness":{
				"baseColorFactor":[
					0.9386856555938721,
					0.5149171352386475,
					0.002428386826068163,
					1
				],
				"metallicFactor":0,
				"roughnessFactor":0.5
			}
		},
		{
			"doubleSided":true,
			"name":"Green.001",
			"pbrMetallicRoughness":{
				"baseColorFactor":[
					0.19461733102798462,
					0.5972017645835876,
					0.1651323437690735,
					1
				],
				"metallicFactor":0,
				"roughnessFactor":0.5
			}
		},
		{
			"doubleSided":true,
			"name":"Blue.001",
			"pbrMetallicRoughness":{
				"baseColorFactor":[
					0.049706414341926575,
					0.07227174937725067,
					0.18447495996952057,
					1
				],
				"metallicFactor":0,
				"roughnessFactor":0.5
			}
		},
		{
			"doubleSided":true,
			"name":"Pink.001",
			"pbrMetallicRoughness":{
				"baseColorFactor":[
					0.9046612977981567,
					0.10461616516113281,
					0.215860515832901,
					1
				],
				"metallicFactor":0,
				"roughnessFactor":0.5
			}
		},
		{
			"doubleSided":true,
			"name":"Black.001",
			"pbrMetallicRoughness":{
				"baseColorFactor":[
					0.002579350955784321,
					0.002579350955784321,
					0.002579350955784321,
					1
				],
				"metallicFactor":0,
				"roughnessFactor":0.5
			}
		}
	],
	"meshes":[
		{
			"name":"Icosphere.001",
			"primitives":[
				{
					"attributes":{
						"POSITION":0,
						"TEXCOORD_0":1,
						"NORMAL":2
					},
					"indices":3
				}
			]
		},
		{
			"name":"Icosphere.002",
			"primitives":[
				{
					"attributes":{
						"POSITION":4,
						"TEXCOORD_0":5,
						"NORMAL":6
					},
					"indices":7,
					"material":0
				}
			]
		},
		{
			"name":"Plane.039",
			"primitives":[
				{
					"attributes":{
						"POSITION":8,
						"TEXCOORD_0":9,
						"NORMAL":10
					},
					"indices":11,
					"material":1
				},
				{
					"attributes":{
						"POSITION":12,
						"TEXCOORD_0":13,
						"NORMAL":14
					},
					"indices":15,
					"material":2
				},
				{
					"attributes":{
						"POSITION":16,
						"TEXCOORD_0":17,
						"NORMAL":18
					},
					"indices":19,
					"material":3
				},
				{
					"attributes":{
						"POSITION":20,
						"TEXCOORD_0":21,
						"NORMAL":22
					},
					"indices":23,
					"material":4
				},
				{
					"attributes":{
						"POSITION":24,
						"TEXCOORD_0":25,
						"NORMAL":26
					},
					"indices":7,
					"material":0
				}
			]
		},
		{
			"name":"Plane.002",
			"primitives":[
				{
					"attributes":{
						"POSITION":27,
						"TEXCOORD_0":28,
						"NORMAL":29
					},
					"indices":30,
					"material":5
				},
				{
					"attributes":{
						"POSITION":31,
						"TEXCOORD_0":32,
						"NORMAL":33
					},
					"indices":34,
					"material":6
				},
				{
					"attributes":{
						"POSITION":35,
						"TEXCOORD_0":36,
						"NORMAL":37
					},
					"indices":38,
					"material":7
				},
				{
					"attributes":{
						"POSITION":39,
						"TEXCOORD_0":40,
						"NORMAL":41
					},
					"indices":42,
					"material":8
				},
				{
					"attributes":{
						"POSITION":43,
						"TEXCOORD_0":44,
						"NORMAL":45
					},
					"indices":46,
					"material":9
				}
			]
		}
	],
	"accessors":[
		{
			"bufferView":0,
			"componentType":5126,
			"count":240,
			"max":[
				1.6365727186203003,
				1.7207919359207153,
				1.7207918167114258
			],
			"min":[
				-1.6365727186203003,
				-1.7207919359207153,
				-1.7207918167114258
			],
			"type":"VEC3"
		},
		{
			"bufferView":1,
			"componentType":5126,
			"count":240,
			"type":"VEC2"
		},
		{
			"bufferView":2,
			"componentType":5126,
			"count":240,
			"type":"VEC3"
		},
		{
			"bufferView":3,
			"componentType":5123,
			"count":240,
			"type":"SCALAR"
		},
		{
			"bufferView":4,
			"componentType":5126,
			"count":1920,
			"max":[
				1.6479854583740234,
				1.732791781425476,
				1.732791781425476
			],
			"min":[
				-1.6479854583740234,
				-1.7327920198440552,
				-1.732791781425476
			],
			"type":"VEC3"
		},
		{
			"bufferView":5,
			"componentType":5126,
			"count":1920,
			"type":"VEC2"
		},
		{
			"bufferView":6,
			"componentType":5126,
			"count":1920,
			"type":"VEC3"
		},
		{
			"bufferView":7,
			"componentType":5123,
			"count":2880,
			"type":"SCALAR"
		},
		{
			"bufferView":8,
			"componentType":5126,
			"count":21,
			"max":[
				2.016831398010254,
				0.6569403409957886,
				3.1129326820373535
			],
			"min":[
				-1.2725733518600464,
				-1.9030064344406128,
				-0.32865095138549805
			],
			"type":"VEC3"
		},
		{
			"bufferView":9,
			"componentType":5126,
			"count":21,
			"type":"VEC2"
		},
		{
			"bufferView":10,
			"componentType":5126,
			"count":21,
			"type":"VEC3"
		},
		{
			"bufferView":11,
			"componentType":5123,
			"count":21,
			"type":"SCALAR"
		},
		{
			"bufferView":12,
			"componentType":5126,
			"count":42,
			"max":[
				2.1183366775512695,
				0.643397867679596,
				2.85296630859375
			],
			"min":[
				-1.0714324712753296,
				-2.641024589538574,
				0.3532918691635132
			],
			"type":"VEC3"
		},
		{
			"bufferView":13,
			"componentType":5126,
			"count":42,
			"type":"VEC2"
		},
		{
			"bufferView":14,
			"componentType":5126,
			"count":42,
			"type":"VEC3"
		},
		{
			"bufferView":15,
			"componentType":5123,
			"count":84,
			"type":"SCALAR"
		},
		{
			"bufferView":16,
			"componentType":5126,
			"count":40,
			"max":[
				2.063663959503174,
				0.6674867272377014,
				2.9364418983459473
			],
			"min":[
				-1.1712865829467773,
				-2.4656434059143066,
				-0.1627199649810791
			],
			"type":"VEC3"
		},
		{
			"bufferView":17,
			"componentType":5126,
			"count":40,
			"type":"VEC2"
		},
		{
			"bufferView":18,
			"componentType":5126,
			"count":40,
			"type":"VEC3"
		},
		{
			"bufferView":19,
			"componentType":5123,
			"count":60,
			"type":"SCALAR"
		},
		{
			"bufferView":20,
			"componentType":5126,
			"count":576,
			"max":[
				2.1167898178100586,
				0.8200451731681824,
				2.9184470176696777
			],
			"min":[
				-1.2193562984466553,
				-2.4195945262908936,
				-0.11301577091217041
			],
			"type":"VEC3"
		},
		{
			"bufferView":21,
			"componentType":5126,
			"count":576,
			"type":"VEC2"
		},
		{
			"bufferView":22,
			"componentType":5126,
			"count":576,
			"type":"VEC3"
		},
		{
			"bufferView":23,
			"componentType":5123,
			"count":1620,
			"type":"SCALAR"
		},
		{
			"bufferView":24,
			"componentType":5126,
			"count":1920,
			"max":[
				2.086665630340576,
				0.8137415051460266,
				3.110567092895508
			],
			"min":[
				-1.1819806098937988,
				-2.6231117248535156,
				-0.326285719871521
			],
			"type":"VEC3"
		},
		{
			"bufferView":25,
			"componentType":5126,
			"count":1920,
			"type":"VEC2"
		},
		{
			"bufferView":26,
			"componentType":5126,
			"count":1920,
			"type":"VEC3"
		},
		{
			"bufferView":27,
			"componentType":5126,
			"count":126,
			"max":[
				2.0332322120666504,
				0.6569403409957886,
				3.1321871280670166
			],
			"min":[
				-1.2890746593475342,
				-1.9126665592193604,
				-0.32865095138549805
			],
			"type":"VEC3"
		},
		{
			"bufferView":28,
			"componentType":5126,
			"count":126,
			"type":"VEC2"
		},
		{
			"bufferView":29,
			"componentType":5126,
			"count":126,
			"type":"VEC3"
		},
		{
			"bufferView":30,
			"componentType":5123,
			"count":168,
			"type":"SCALAR"
		},
		{
			"bufferView":31,
			"componentType":5126,
			"count":252,
			"max":[
				2.1372082233428955,
				0.643397867679596,
				2.85296630859375
			],
			"min":[
				-1.0714324712753296,
				-2.641024589538574,
				0.34617799520492554
			],
			"type":"VEC3"
		},
		{
			"bufferView":32,
			"componentType":5126,
			"count":252,
			"type":"VEC2"
		},
		{
			"bufferView":33,
			"componentType":5126,
			"count":252,
			"type":"VEC3"
		},
		{
			"bufferView":34,
			"componentType":5123,
			"count":420,
			"type":"SCALAR"
		},
		{
			"bufferView":35,
			"componentType":5126,
			"count":240,
			"max":[
				2.063663959503174,
				0.6828239560127258,
				2.9531004428863525
			],
			"min":[
				-1.1712865829467773,
				-2.481410503387451,
				-0.1627199649810791
			],
			"type":"VEC3"
		},
		{
			"bufferView":36,
			"componentType":5126,
			"count":240,
			"type":"VEC2"
		},
		{
			"bufferView":37,
			"componentType":5126,
			"count":240,
			"type":"VEC3"
		},
		{
			"bufferView":38,
			"componentType":5123,
			"count":360,
			"type":"SCALAR"
		},
		{
			"bufferView":39,
			"componentType":5126,
			"count":3456,
			"max":[
				2.1352334022521973,
				0.8200451731681824,
				2.9346632957458496
			],
			"min":[
				-1.2193562984466553,
				-2.4346554279327393,
				-0.11301577091217041
			],
			"type":"VEC3"
		},
		{
			"bufferView":40,
			"componentType":5126,
			"count":3456,
			"type":"VEC2"
		},
		{
			"bufferView":41,
			"componentType":5126,
			"count":3456,
			"type":"VEC3"
		},
		{
			"bufferView":42,
			"componentType":5123,
			"count":6696,
			"type":"SCALAR"
		},
		{
			"bufferView":43,
			"componentType":5126,
			"count":1920,
			"max":[
				2.086665630340576,
				0.8137415051460266,
				3.110567092895508
			],
			"min":[
				-1.1819806098937988,
				-2.6231117248535156,
				-0.326285719871521
			],
			"type":"VEC3"
		},
		{
			"bufferView":44,
			"componentType":5126,
			"count":1920,
			"type":"VEC2"
		},
		{
			"bufferView":45,
			"componentType":5126,
			"count":1920,
			"type":"VEC3"
		},
		{
			"bufferView":46,
			"componentType":5123,
			"count":2880,
			"type":"SCALAR"
		}
	],
	"bufferViews":[
		{
			"buffer":0,
			"byteLength":2880,
			"byteOffset":0,
			"target":34962
		},
		{
			"buffer":0,
			"byteLength":1920,
			"byteOffset":2880,
			"target":34962
		},
		{
			"buffer":0,
			"byteLength":2880,
			"byteOffset":4800,
			"target":34962
		},
		{
			"buffer":0,
			"byteLength":480,
			"byteOffset":7680,
			"target":34963
		},
		{
			"buffer":0,
			"byteLength":23040,
			"byteOffset":8160,
			"target":34962
		},
		{
			"buffer":0,
			"byteLength":15360,
			"byteOffset":31200,
			"target":34962
		},
		{
			"buffer":0,
			"byteLength":23040,
			"byteOffset":46560,
			"target":34962
		},
		{
			"buffer":0,
			"byteLength":5760,
			"byteOffset":69600,
			"target":34963
		},
		{
			"buffer":0,
			"byteLength":252,
			"byteOffset":75360,
			"target":34962
		},
		{
			"buffer":0,
			"byteLength":168,
			"byteOffset":75612,
			"target":34962
		},
		{
			"buffer":0,
			"byteLength":252,
			"byteOffset":75780,
			"target":34962
		},
		{
			"buffer":0,
			"byteLength":42,
			"byteOffset":76032,
			"target":34963
		},
		{
			"buffer":0,
			"byteLength":504,
			"byteOffset":76076,
			"target":34962
		},
		{
			"buffer":0,
			"byteLength":336,
			"byteOffset":76580,
			"target":34962
		},
		{
			"buffer":0,
			"byteLength":504,
			"byteOffset":76916,
			"target":34962
		},
		{
			"buffer":0,
			"byteLength":168,
			"byteOffset":77420,
			"target":34963
		},
		{
			"buffer":0,
			"byteLength":480,
			"byteOffset":77588,
			"target":34962
		},
		{
			"buffer":0,
			"byteLength":320,
			"byteOffset":78068,
			"target":34962
		},
		{
			"buffer":0,
			"byteLength":480,
			"byteOffset":78388,
			"target":34962
		},
		{
			"buffer":0,
			"byteLength":120,
			"byteOffset":78868,
			"target":34963
		},
		{
			"buffer":0,
			"byteLength":6912,
			"byteOffset":78988,
			"target":34962
		},
		{
			"buffer":0,
			"byteLength":4608,
			"byteOffset":85900,
			"target":34962
		},
		{
			"buffer":0,
			"byteLength":6912,
			"byteOffset":90508,
			"target":34962
		},
		{
			"buffer":0,
			"byteLength":3240,
			"byteOffset":97420,
			"target":34963
		},
		{
			"buffer":0,
			"byteLength":23040,
			"byteOffset":100660,
			"target":34962
		},
		{
			"buffer":0,
			"byteLength":15360,
			"byteOffset":123700,
			"target":34962
		},
		{
			"buffer":0,
			"byteLength":23040,
			"byteOffset":139060,
			"target":34962
		},
		{
			"buffer":0,
			"byteLength":1512,
			"byteOffset":162100,
			"target":34962
		},
		{
			"buffer":0,
			"byteLength":1008,
			"byteOffset":163612,
			"target":34962
		},
		{
			"buffer":0,
			"byteLength":1512,
			"byteOffset":164620,
			"target":34962
		},
		{
			"buffer":0,
			"byteLength":336,
			"byteOffset":166132,
			"target":34963
		},
		{
			"buffer":0,
			"byteLength":3024,
			"byteOffset":166468,
			"target":34962
		},
		{
			"buffer":0,
			"byteLength":2016,
			"byteOffset":169492,
			"target":34962
		},
		{
			"buffer":0,
			"byteLength":3024,
			"byteOffset":171508,
			"target":34962
		},
		{
			"buffer":0,
			"byteLength":840,
			"byteOffset":174532,
			"target":34963
		},
		{
			"buffer":0,
			"byteLength":2880,
			"byteOffset":175372,
			"target":34962
		},
		{
			"buffer":0,
			"byteLength":1920,
			"byteOffset":178252,
			"target":34962
		},
		{
			"buffer":0,
			"byteLength":2880,
			"byteOffset":180172,
			"target":34962
		},
		{
			"buffer":0,
			"byteLength":720,
			"byteOffset":183052,
			"target":34963
		},
		{
			"buffer":0,
			"byteLength":41472,
			"byteOffset":183772,
			"target":34962
		},
		{
			"buffer":0,
			"byteLength":27648,
			"byteOffset":225244,
			"target":34962
		},
		{
			"buffer":0,
			"byteLength":41472,
			"byteOffset":252892,
			"target":34962
		},
		{
			"buffer":0,
			"byteLength":13392,
			"byteOffset":294364,
			"target":34963
		},
		{
			"buffer":0,
			"byteLength":23040,
			"byteOffset":307756,
			"target":34962
		},
		{
			"buffer":0,
			"byteLength":15360,
			"byteOffset":330796,
			"target":34962
		},
		{
			"buffer":0,
			"byteLength":23040,
			"byteOffset":346156,
			"target":34962
		},
		{
			"buffer":0,
			"byteLength":5760,
			"byteOffset":369196,
			"target":34963
		}
	],
	"buffers":[
		{
			"byteLength":374956,
			"uri":"data:application/octet-stream;base64,"
		}
	]
}
